<?xml version="1.0" encoding="UTF-8"?>
<svg version="1.1" xmlns="http://www.w3.org/2000/svg" width="500" height="500">
<path d="M0 0 C165 0 330 0 500 0 C500 165 500 330 500 500 C335 500 170 500 0 500 C0 335 0 170 0 0 Z " fill="#FEFEFE" transform="translate(0,0)"/>
<path d="M0 0 C11.02740485 1.46363737 22.50121245 12.22664523 29.28710938 20.58544922 C42.67803027 38.23758951 48.18759621 57.91360779 46 80 C44.04606562 94.06472578 38.22739359 106.2507607 29 117 C27.93458984 118.26457031 27.93458984 118.26457031 26.84765625 119.5546875 C22.82185205 124.22840593 22.82185205 124.22840593 21 126 C20.34 126 19.68 126 19 126 C19 126.66 19 127.32 19 128 C2.78595763 140.8184314 -17.39958377 147.01924872 -38 145 C-53.82072293 142.46342328 -67.72154787 136.26231576 -80 126 C-80 125.34 -80 124.68 -80 124 C-81.485 123.505 -81.485 123.505 -83 123 C-84.69088222 121.02043058 -86.35830472 119.02054804 -88 117 C-88.66 116.67 -89.32 116.34 -90 116 C-90.99750816 114.32086127 -91.98859445 112.63717638 -92.9296875 110.92578125 C-93.89982974 109.18023336 -94.94602282 107.47749453 -96 105.78125 C-105.53243085 90.14210563 -108.3069766 73.64564994 -105.3125 55.5625 C-101.1238991 38.92285258 -91.2618423 24.62548918 -80 12 C-79.67 12.66 -79.34 13.32 -79 14 C-79.58570271 15.50399038 -80.24475928 16.97971229 -80.9375 18.4375 C-84.17252257 26.23300578 -84.05281585 33.83968599 -81.02734375 41.703125 C-77.41019896 49.79012552 -72.93163551 56.75013785 -67.33959961 63.58496094 C-65.14124462 66.30798603 -63.45089025 68.46944427 -63 72 C-62.34 72 -61.68 72 -61 72 C-60.18501438 73.6029053 -59.37310073 75.20737278 -58.5625 76.8125 C-58.11003906 77.70582031 -57.65757812 78.59914063 -57.19140625 79.51953125 C-54.5763622 84.96396722 -54.35836222 90.0484662 -55.625 95.875 C-57.65034262 100.47805141 -60.00339318 104.95114957 -63 109 C-63.99 109.33 -64.98 109.66 -66 110 C-67.20882096 112.00016466 -67.20882096 112.00016466 -68 114 C-74.23377547 113.62219543 -77.88299367 109.32560025 -81.86328125 104.953125 C-89.90702752 95.23862201 -92.18201142 85.51556219 -92.0625 73.1875 C-92.05573242 71.86202148 -92.05573242 71.86202148 -92.04882812 70.50976562 C-92.03709866 68.33981441 -92.01916495 66.16989828 -92 64 C-96.13592108 78.79704036 -94.64425644 91.8397669 -87.25 105.1875 C-78.80675077 119.69608016 -64.46128426 129.00995002 -48.375 133.3125 C-29.48051632 137.92352104 -10.44108894 134.79399991 6.25341797 125.07177734 C21.13408558 115.94036404 32.48410296 101.80563965 37.2734375 85.04296875 C41.87288372 65.77969667 39.9188764 45.15604248 29.91015625 27.96484375 C22.53976898 16.52491749 13.65193099 8.80039796 1.8359375 2.12890625 C1.23007812 1.75636719 0.62421875 1.38382813 0 1 C0 0.67 0 0.34 0 0 Z " fill="#4FB951" transform="translate(280,136)"/>
<path d="M0 0 C0.8652832 -0.00547852 1.73056641 -0.01095703 2.62207031 -0.01660156 C6.83397838 0.03150609 9.64526947 0.20066751 13.375 2.3125 C12.85550781 2.70179688 12.33601563 3.09109375 11.80078125 3.4921875 C2.57780297 10.89102774 -0.09807989 20.38482949 -3.625 31.3125 C-7.02996702 41.6468736 -12.12313473 48.67884771 -21.75390625 54.05859375 C-30.24600158 57.7673864 -39.43084338 58.8844867 -48.625 58.3125 C-47.97210557 54.38567115 -46.05879873 51.5753883 -43.9375 48.25 C-37.20448205 39.19820577 -37.20448205 39.19820577 -33.625 29.3125 C-34.14449219 29.96476562 -34.66398437 30.61703125 -35.19921875 31.2890625 C-36.63673592 33.09060897 -38.07694404 34.8900108 -39.51953125 36.6875 C-40.75217799 38.22430633 -41.98072969 39.76444442 -43.19921875 41.3125 C-44.29627173 42.68299261 -45.45444258 44.00422994 -46.625 45.3125 C-47.285 45.3125 -47.945 45.3125 -48.625 45.3125 C-48.851875 45.89515625 -49.07875 46.4778125 -49.3125 47.078125 C-50.9845162 49.92453354 -52.90476811 51.2121097 -55.625 53.0625 C-56.9553125 53.98289062 -56.9553125 53.98289062 -58.3125 54.921875 C-60.625 56.3125 -60.625 56.3125 -62.625 56.3125 C-62.16466144 43.42302021 -56.67416791 31.22200191 -48.625 21.3125 C-48.15449219 20.68085938 -47.68398437 20.04921875 -47.19921875 19.3984375 C-43.16924349 14.24460999 -38.12970104 10.77235128 -32.625 7.3125 C-31.98820312 6.90902344 -31.35140625 6.50554687 -30.6953125 6.08984375 C-21.30156705 0.78822346 -10.54742765 0.04959008 0 0 Z " fill="#24AF57" transform="translate(286.625,200.6875)"/>
<path d="M0 0 C11.02740485 1.46363737 22.50121245 12.22664523 29.28710938 20.58544922 C42.67803027 38.23758951 48.18759621 57.91360779 46 80 C44.04606562 94.06472578 38.22739359 106.2507607 29 117 C27.93458984 118.26457031 27.93458984 118.26457031 26.84765625 119.5546875 C22.82185205 124.22840593 22.82185205 124.22840593 21 126 C20.34 126 19.68 126 19 126 C19 126.66 19 127.32 19 128 C2.78595763 140.8184314 -17.39958377 147.01924872 -38 145 C-53.82072293 142.46342328 -67.72154787 136.26231576 -80 126 C-80 125.34 -80 124.68 -80 124 C-81.485 123.505 -81.485 123.505 -83 123 C-84.69088222 121.02043058 -86.35830472 119.02054804 -88 117 C-88.66 116.67 -89.32 116.34 -90 116 C-90.99527956 114.3300958 -91.98374518 112.65535283 -92.92089844 110.95214844 C-93.92886094 109.12869411 -94.98521765 107.34863383 -96.0703125 105.5703125 C-99.900869 99.18787574 -102.96732649 93.48688296 -104 86 C-102.046875 86.7421875 -102.046875 86.7421875 -100 88 C-99.16113831 90.67790463 -99.18233586 93.1737941 -99 96 C-98.01 96.33 -97.02 96.66 -96 97 C-95.34 94.69 -94.68 92.38 -94 90 C-92.52696334 92.81742383 -91.3882621 95.63623109 -90.3125 98.625 C-84.50459741 113.11284493 -72.92366973 123.37377893 -59 130 C-41.57164577 136.50843194 -21.20896434 137.72334912 -3.7890625 130.30078125 C12.99899068 122.5590692 28.56327488 109.27760031 35.28515625 91.625 C41.57866144 71.77451767 41.28955913 49.87667343 31.75 31.125 C24.21671179 18.18565784 14.83158112 9.46644657 1.8359375 2.12890625 C1.23007812 1.75636719 0.62421875 1.38382813 0 1 C0 0.67 0 0.34 0 0 Z " fill="#7CC155" transform="translate(280,136)"/>
<path d="M0 0 C5.61 0 11.22 0 17 0 C17 5.94 17 11.88 17 18 C22.61 18 28.22 18 34 18 C34 23.28 34 28.56 34 34 C28.39 34 22.78 34 17 34 C17 39.61 17 45.22 17 51 C11.72 51 6.44 51 1 51 C1 45.39 1 39.78 1 34 C-4.94 34 -10.88 34 -17 34 C-17 28.39 -17 22.78 -17 17 C-11.39 17 -5.78 17 0 17 C0 11.39 0 5.78 0 0 Z " fill="#1297C6" transform="translate(228,153)"/>
<path d="M0 0 C11.02740485 1.46363737 22.50121245 12.22664523 29.28710938 20.58544922 C42.67803027 38.23758951 48.18759621 57.91360779 46 80 C44.04269192 94.08901024 38.20150156 106.2100287 29 117 C28.33613281 117.83144531 27.67226563 118.66289062 26.98828125 119.51953125 C21.84165572 125.74449737 21.84165572 125.74449737 17.5 127.0625 C16.675 127.041875 15.85 127.02125 15 127 C15.66 124.69 16.32 122.38 17 120 C19.475 119.505 19.475 119.505 22 119 C22 118.34 22 117.68 22 117 C21.34 116.67 20.68 116.34 20 116 C22.64235395 111.45210234 25.63114489 107.1807475 28.68359375 102.90429688 C39.56313474 87.42750877 41.40464696 67.83953905 38.33984375 49.49609375 C34.75864281 31.94986328 24.57002045 17.18592747 10 7 C7.30936901 5.31284204 4.60128828 3.69026584 1.8359375 2.12890625 C1.23007812 1.75636719 0.62421875 1.38382813 0 1 C0 0.67 0 0.34 0 0 Z " fill="#20A869" transform="translate(280,136)"/>
<path d="M0 0 C1.22332031 -0.01675781 2.44664062 -0.03351563 3.70703125 -0.05078125 C7.50262131 0.34539145 9.20348774 0.97988726 12.1875 3.3125 C12.81860352 5.79272461 12.81860352 5.79272461 12.81640625 8.71484375 C12.81930664 10.29749023 12.81930664 10.29749023 12.82226562 11.91210938 C12.79841797 13.01361328 12.77457031 14.11511719 12.75 15.25 C12.76095703 16.34763672 12.77191406 17.44527344 12.78320312 18.57617188 C12.70930839 26.65040329 12.70930839 26.65040329 10.36132812 29.62963867 C7.26598721 32.02588586 4.98819294 31.77686934 1.125 31.6875 C-0.10347656 31.67460937 -1.33195312 31.66171875 -2.59765625 31.6484375 C-5.8125 31.3125 -5.8125 31.3125 -8.8125 29.3125 C-9.18481445 26.63867188 -9.18481445 26.63867188 -9.17578125 23.28125 C-9.17513672 22.07855469 -9.17449219 20.87585938 -9.17382812 19.63671875 C-9.15771484 18.37472656 -9.14160156 17.11273438 -9.125 15.8125 C-9.12822266 14.55050781 -9.13144531 13.28851563 -9.13476562 11.98828125 C-9.06426301 0.02847412 -9.06426301 0.02847412 0 0 Z " fill="#17A764" transform="translate(344.8125,296.6875)"/>
<path d="M0 0 C2.64 0 5.28 0 8 0 C8 4.29 8 8.58 8 13 C9.98 13 11.96 13 14 13 C14 8.71 14 4.42 14 0 C16.97 0 19.94 0 23 0 C23 10.23 23 20.46 23 31 C20.03 31 17.06 31 14 31 C14 27.04 14 23.08 14 19 C12.02 19 10.04 19 8 19 C8 22.96 8 26.92 8 31 C5.36 31 2.72 31 0 31 C0 20.77 0 10.54 0 0 Z " fill="#169D5E" transform="translate(229,297)"/>
<path d="M0 0 C2.97 0 5.94 0 9 0 C9 4.29 9 8.58 9 13 C10.98 13 12.96 13 15 13 C15 8.71 15 4.42 15 0 C17.64 0 20.28 0 23 0 C23 10.23 23 20.46 23 31 C20.36 31 17.72 31 15 31 C15 27.04 15 23.08 15 19 C13.02 19 11.04 19 9 19 C9 22.96 9 26.92 9 31 C6.03 31 3.06 31 0 31 C0 20.77 0 10.54 0 0 Z " fill="#0EA15D" transform="translate(80,297)"/>
<path d="M0 0 C2 3 2 3 2 5 C1.38125 5.04125 0.7625 5.0825 0.125 5.125 C-0.926875 5.558125 -0.926875 5.558125 -2 6 C-3.3045656 8.99615946 -3.3045656 8.99615946 -4 12 C-3.01 12 -2.02 12 -1 12 C-1 12.66 -1 13.32 -1 14 C-14.36296679 24.56443972 -28.97636345 30.18622023 -45.9375 30.375 C-46.75476563 30.38893799 -47.57203125 30.40287598 -48.4140625 30.41723633 C-53.21719578 30.37902959 -55.9527194 29.7956216 -60 27 C-62.74239143 27.21329449 -62.74239143 27.21329449 -65 28 C-65.5625 26.0625 -65.5625 26.0625 -66 24 C-64.20314609 22.20314609 -61.45207367 22.59207856 -59.015625 22.38671875 C-57.76910156 22.27263672 -56.52257812 22.15855469 -55.23828125 22.04101562 C-52.62694175 21.80679609 -50.01532402 21.58534153 -47.40234375 21.36914062 C-28.74840418 19.62569275 -13.36447194 13.29376045 0 0 Z " fill="#5DBE4E" transform="translate(300,250)"/>
<path d="M0 0 C3.96 0 7.92 0 12 0 C12.4125 1.670625 12.825 3.34125 13.25 5.0625 C14.15850141 8.71824011 15.09159913 12.36395833 16.08984375 15.99609375 C16.27192383 16.66181396 16.45400391 17.32753418 16.64160156 18.01342773 C17.1673538 19.9266862 17.69879876 21.83837755 18.23046875 23.75 C19 27 19 27 19 31 C16.03 31 13.06 31 10 31 C10 29.35 10 27.7 10 26 C7.36 26 4.72 26 2 26 C2 27.65 2 29.3 2 31 C-0.97 31 -3.94 31 -7 31 C-5.30264057 20.50723263 -2.63966577 10.28663645 0 0 Z " fill="#18A864" transform="translate(147,297)"/>
<path d="M0 0 C1.22589844 -0.00773437 2.45179688 -0.01546875 3.71484375 -0.0234375 C7.23215348 0.39519213 8.71833025 0.73999033 11.0625 3.375 C11.453125 5.63671875 11.453125 5.63671875 11.3125 8.0625 C11.27640625 8.87074219 11.2403125 9.67898438 11.203125 10.51171875 C11.13351562 11.43404297 11.13351562 11.43404297 11.0625 12.375 C8.4225 12.375 5.7825 12.375 3.0625 12.375 C3.0625 10.395 3.0625 8.415 3.0625 6.375 C1.7425 6.375 0.4225 6.375 -0.9375 6.375 C-0.9375 12.975 -0.9375 19.575 -0.9375 26.375 C0.3825 26.375 1.7025 26.375 3.0625 26.375 C3.0625 24.395 3.0625 22.415 3.0625 20.375 C5.7025 20.375 8.3425 20.375 11.0625 20.375 C11.54862786 26.69466224 11.54862786 26.69466224 9.48828125 29.578125 C6.22177392 31.99776006 4.03058997 31.90890612 0 31.875 C-1.22847656 31.8853125 -2.45695312 31.895625 -3.72265625 31.90625 C-6.9375 31.375 -6.9375 31.375 -8.61352539 29.68774414 C-10.2253083 26.87225096 -10.32460882 25.07202437 -10.3359375 21.83984375 C-10.33980469 20.78345703 -10.34367187 19.72707031 -10.34765625 18.63867188 C-10.33605469 17.54103516 -10.32445312 16.44339844 -10.3125 15.3125 C-10.32410156 14.21099609 -10.33570313 13.10949219 -10.34765625 11.97460938 C-10.34378906 10.91951172 -10.33992188 9.86441406 -10.3359375 8.77734375 C-10.33255371 7.81304443 -10.32916992 6.84874512 -10.32568359 5.85522461 C-9.9375 3.375 -9.9375 3.375 -8.61352539 1.56225586 C-5.8839817 -0.37128689 -3.27996197 -0.02065034 0 0 Z " fill="#19A764" transform="translate(376.9375,296.625)"/>
<path d="M0 0 C1.85625 -0.00773437 1.85625 -0.00773437 3.75 -0.015625 C7 0.25 7 0.25 10 2.25 C10.29296875 4.4140625 10.29296875 4.4140625 10.1875 6.875 C10.16042969 7.69226563 10.13335937 8.50953125 10.10546875 9.3515625 C10.07066406 9.97804688 10.03585937 10.60453125 10 11.25 C7.36 11.25 4.72 11.25 2 11.25 C2 9.6 2 7.95 2 6.25 C0.68 6.25 -0.64 6.25 -2 6.25 C-2 12.52 -2 18.79 -2 25.25 C-0.68 25.25 0.64 25.25 2 25.25 C2 23.6 2 21.95 2 20.25 C4.64 20.25 7.28 20.25 10 20.25 C10.36437918 27.65904323 10.36437918 27.65904323 8.92578125 29.9921875 C5.99099808 31.90902357 3.46175642 31.60937795 0 31.5625 C-1.2375 31.55863281 -2.475 31.55476563 -3.75 31.55078125 C-7 31.25 -7 31.25 -10 29.25 C-10.38818359 26.57617188 -10.38818359 26.57617188 -10.3984375 23.21875 C-10.40230469 22.01605469 -10.40617187 20.81335938 -10.41015625 19.57421875 C-10.39275391 17.68123047 -10.39275391 17.68123047 -10.375 15.75 C-10.38660156 14.48800781 -10.39820313 13.22601563 -10.41015625 11.92578125 C-10.40628906 10.72308594 -10.40242188 9.52039063 -10.3984375 8.28125 C-10.39505371 7.17330078 -10.39166992 6.06535156 -10.38818359 4.92382812 C-10.26008301 4.04146484 -10.13198242 3.15910156 -10 2.25 C-6.32077133 -0.20281911 -4.37740649 -0.01823919 0 0 Z " fill="#25A267" transform="translate(289,296.75)"/>
<path d="M0 0 C5.94 0 11.88 0 18 0 C18 1.98 18 3.96 18 6 C14.7 6 11.4 6 8 6 C8 7.98 8 9.96 8 12 C10.97 12 13.94 12 17 12 C17 13.98 17 15.96 17 18 C14.03 18 11.06 18 8 18 C8 20.31 8 22.62 8 25 C11.63 25 15.26 25 19 25 C19 26.98 19 28.96 19 31 C12.73 31 6.46 31 0 31 C0 20.77 0 10.54 0 0 Z " fill="#0DA35E" transform="translate(114,297)"/>
<path d="M0 0 C0.33 0 0.66 0 1 0 C1.33 1.65 1.66 3.3 2 5 C2.99 5 3.98 5 5 5 C5.99 5 6.98 5 8 5 C8.50493003 7.01972011 9.00950643 9.03921402 9.5 11.0625 C9.92981688 12.7280404 10.45605447 14.36816342 11 16 C10.69199085 17.67153201 10.35586806 19.33799915 10 21 C9.94428527 22.71917367 9.93714414 24.44044664 9.97265625 26.16015625 C9.98490234 27.11857422 9.99714844 28.07699219 10.00976562 29.06445312 C10.04499184 31.06712845 10.0840697 33.06973964 10.12695312 35.07226562 C10.13791016 36.02939453 10.14886719 36.98652344 10.16015625 37.97265625 C10.17699463 38.84156494 10.19383301 39.71047363 10.21118164 40.60571289 C9.9839279 43.18221856 9.30031885 44.78577024 8 47 C4.08341157 43.73617631 3.31707333 40.82926889 2 36 C0.50014391 34.33289654 0.50014391 34.33289654 -1 33 C-2.37484869 28.68136446 -2.1909747 24.36300753 -2.1875 19.875 C-2.18814453 19.02639404 -2.18878906 18.17778809 -2.18945312 17.3034668 C-2.13886433 11.3000711 -1.52845494 5.82723446 0 0 Z " fill="#65BD54" transform="translate(176,187)"/>
<path d="M0 0 C2.24178172 2.24178172 2.33411303 3.00350864 3 6 C3.65509503 8.00382009 4.31974363 10.00458132 5 12 C5.61875 11.690625 6.2375 11.38125 6.875 11.0625 C8.25 10.375 9.625 9.6875 11 9 C12.0409066 7.35857037 13.04504326 5.69287785 14 4 C14.66 4.33 15.32 4.66 16 5 C14.59618624 9.25721782 12.55933627 11.87693844 9.5 15.125 C7.08551892 17.70410479 4.96265593 20.05601611 3 23 C2.34 23 1.68 23 1 23 C0.773125 23.58265625 0.54625 24.1653125 0.3125 24.765625 C-1.3595162 27.61203354 -3.27976811 28.8996097 -6 30.75 C-7.3303125 31.67039063 -7.3303125 31.67039063 -8.6875 32.609375 C-11 34 -11 34 -13 34 C-12.56478549 21.81399361 -7.48277474 9.5524784 0 0 Z " fill="#4CB855" transform="translate(237,223)"/>
<path d="M0 0 C2.97 0 5.94 0 9 0 C9 8.25 9 16.5 9 25 C11.97 25 14.94 25 18 25 C18 26.98 18 28.96 18 31 C12.06 31 6.12 31 0 31 C0 20.77 0 10.54 0 0 Z " fill="#08A45B" transform="translate(309,297)"/>
<path d="M0 0 C6.6 0 13.2 0 20 0 C20 1.98 20 3.96 20 6 C18.02 6 16.04 6 14 6 C14 14.25 14 22.5 14 31 C11.36 31 8.72 31 6 31 C6 22.75 6 14.5 6 6 C4.02 6 2.04 6 0 6 C0 4.02 0 2.04 0 0 Z " fill="#07A45C" transform="translate(200,297)"/>
<path d="M0 0 C2.64 0 5.28 0 8 0 C8 8.25 8 16.5 8 25 C11.3 25 14.6 25 18 25 C18 26.98 18 28.96 18 31 C12.06 31 6.12 31 0 31 C0 20.77 0 10.54 0 0 Z " fill="#0EA15D" transform="translate(175,297)"/>
<path d="M0 0 C2.97 0 5.94 0 9 0 C8.03411816 3.71493014 7.14476535 6.73191601 5.3125 10.125 C3.0344383 15.11503991 5.48202355 19.76517198 7.0625 24.8125 C7.42472656 25.97394531 7.78695313 27.13539063 8.16015625 28.33203125 C8.43730469 29.21246094 8.71445312 30.09289062 9 31 C6.03 31 3.06 31 0 31 C-6.38562298 16.70415893 -6.38562298 16.70415893 -4 9 C-2.81091857 5.89411929 -1.47178231 2.99104148 0 0 Z " fill="#09A65D" transform="translate(412,297)"/>
<path d="M0 0 C2.64 0 5.28 0 8 0 C8 10.23 8 20.46 8 31 C5.36 31 2.72 31 0 31 C0 20.77 0 10.54 0 0 Z " fill="#0AA35C" transform="translate(398,297)"/>
<path d="M0 0 C2.31 0.33 4.62 0.66 7 1 C6.01 1.495 6.01 1.495 5 2 C4.34267472 4.41011485 4.34267472 4.41011485 3.9375 7.25 C3.78152344 8.20390625 3.62554687 9.1578125 3.46484375 10.140625 C3.31144531 11.08421875 3.15804687 12.0278125 3 13 C2.67412018 14.66814005 2.34325831 16.3353491 2 18 C3.98 18 5.96 18 8 18 C7.67 19.65 7.34 21.3 7 23 C4.69 23 2.38 23 0 23 C0 24.98 0 26.96 0 29 C-2.97 29 -5.94 29 -9 29 C-7.77048326 21.52164523 -6.11170763 14.2783523 -4 7 C-3.34 7 -2.68 7 -2 7 C-1.855625 6.401875 -1.71125 5.80375 -1.5625 5.1875 C-1.1127561 3.43849596 -0.57107659 1.71322977 0 0 Z " fill="#11A55F" transform="translate(149,299)"/>
<path d="M0 0 C2 3 2 3 2 5 C1.38125 5.04125 0.7625 5.0825 0.125 5.125 C-0.926875 5.558125 -0.926875 5.558125 -2 6 C-3.3045656 8.99615946 -3.3045656 8.99615946 -4 12 C-3.01 12 -2.02 12 -1 12 C-1 12.66 -1 13.32 -1 14 C-2.84037223 15.4088974 -4.74971704 16.72840298 -6.6875 18 C-7.74324219 18.70125 -8.79898437 19.4025 -9.88671875 20.125 C-15.95350167 23.77877139 -19.15348438 24.32513206 -26 23 C-26.99 22.34 -27.98 21.68 -29 21 C-28.34 21 -27.68 21 -27 21 C-27 20.34 -27 19.68 -27 19 C-26.01 18.67 -25.02 18.34 -24 18 C-23.38511719 17.37609375 -22.77023437 16.7521875 -22.13671875 16.109375 C-19.82441042 13.82665745 -17.71937717 12.67617351 -14.8125 11.25 C-9.09372031 8.25225258 -4.61015324 4.4849392 0 0 Z " fill="#40B163" transform="translate(300,250)"/>
<path d="M0 0 C1.37478516 0.01740234 1.37478516 0.01740234 2.77734375 0.03515625 C3.69644531 0.04417969 4.61554688 0.05320312 5.5625 0.0625 C6.27277344 0.07410156 6.98304688 0.08570313 7.71484375 0.09765625 C7.71484375 0.75765625 7.71484375 1.41765625 7.71484375 2.09765625 C5.73484375 3.08765625 5.73484375 3.08765625 3.71484375 4.09765625 C3.38484375 10.69765625 3.05484375 17.29765625 2.71484375 24.09765625 C5.18984375 25.08765625 5.18984375 25.08765625 7.71484375 26.09765625 C7.71484375 27.08765625 7.71484375 28.07765625 7.71484375 29.09765625 C4.08484375 28.76765625 0.45484375 28.43765625 -3.28515625 28.09765625 C-3.31401963 23.61850297 -3.33190812 19.13937334 -3.34765625 14.66015625 C-3.35603516 13.38076172 -3.36441406 12.10136719 -3.37304688 10.78320312 C-3.37626953 9.56826172 -3.37949219 8.35332031 -3.3828125 7.1015625 C-3.38804932 5.97564697 -3.39328613 4.84973145 -3.39868164 3.68969727 C-3.24315164 0.13859622 -3.24315164 0.13859622 0 0 Z " fill="#07A65C" transform="translate(282.28515625,297.90234375)"/>
<path d="M0 0 C0.33 0 0.66 0 1 0 C1.05428973 2.22889496 1.09292338 4.45817471 1.125 6.6875 C1.14820313 7.92886719 1.17140625 9.17023438 1.1953125 10.44921875 C1.00741719 13.86515547 0.7337086 16.06141843 -1 19 C-2.32 19.33 -3.64 19.66 -5 20 C-5.66 23.3 -6.32 26.6 -7 30 C-1.72 29.67 3.56 29.34 9 29 C4.58545213 33.41454787 -4.11086452 33.82435777 -10.1484375 34.19140625 C-12.44093722 34.18812187 -14.71225556 34.14232512 -17 34 C-16.34710557 30.07317115 -14.43379873 27.2628883 -12.3125 23.9375 C-4.95434095 12.53717752 -4.95434095 12.53717752 0 0 Z " fill="#3BB351" transform="translate(255,225)"/>
<path d="M0 0 C0.33 0.66 0.66 1.32 1 2 C0.41429729 3.50399038 -0.24475928 4.97971229 -0.9375 6.4375 C-4.7486043 15.61579962 -3.04955375 24.53911351 -1 34 C-2.65 34.66 -4.3 35.32 -6 36 C-8 30.25 -8 30.25 -8 28 C-7.34 28 -6.68 28 -6 28 C-6.33 24.37 -6.66 20.74 -7 17 C-7.66 17.33 -8.32 17.66 -9 18 C-9 18.99 -9 19.98 -9 21 C-13.13043478 25.56521739 -13.13043478 25.56521739 -16 27 C-14.96404374 18.12037493 -10.58367244 12.78705012 -5 6 C-4.43796875 5.30777344 -3.8759375 4.61554688 -3.296875 3.90234375 C-2.2150068 2.58731429 -1.11115729 1.29037621 0 0 Z " fill="#38B157" transform="translate(200,148)"/>
<path d="M0 0 C5.61 0 11.22 0 17 0 C16.67 0.66 16.34 1.32 16 2 C11.38 2 6.76 2 2 2 C2 6.29 2 10.58 2 15 C7.61 15 13.22 15 19 15 C19 20.61 19 26.22 19 32 C23.29 32 27.58 32 32 32 C32 27.38 32 22.76 32 18 C32.66 17.67 33.32 17.34 34 17 C34 22.61 34 28.22 34 34 C28.72 34 23.44 34 18 34 C18 28.39 18 22.78 18 17 C12.06 17 6.12 17 0 17 C0 11.39 0 5.78 0 0 Z " fill="#3397B9" transform="translate(211,170)"/>
<path d="M0 0 C0.33 0.66 0.66 1.32 1 2 C2.32 2 3.64 2 5 2 C5 8.6 5 15.2 5 22 C7.31 22 9.62 22 12 22 C11.4375 23.9375 11.4375 23.9375 10 26 C5.49639663 27.16760087 3.00775984 27.27753753 -1 25 C-1.02886984 21.02084841 -1.04675406 17.04172347 -1.0625 13.0625 C-1.07087891 11.92619141 -1.07925781 10.78988281 -1.08789062 9.61914062 C-1.09111328 8.53955078 -1.09433594 7.45996094 -1.09765625 6.34765625 C-1.10289307 5.34742432 -1.10812988 4.34719238 -1.11352539 3.31665039 C-1 1 -1 1 0 0 Z " fill="#02A75A" transform="translate(338,300)"/>
<path d="M0 0 C11.02740485 1.46363737 22.50121245 12.22664523 29.28710938 20.58544922 C35.02278904 28.14631997 41.0335843 36.33584304 42 46 C41.34 46 40.68 46 40 46 C40 48.64 40 51.28 40 54 C39.67 54 39.34 54 39 54 C38.79246094 52.99582031 38.58492188 51.99164063 38.37109375 50.95703125 C34.35190633 32.67287552 25.51232801 17.84469638 10 7 C7.30936901 5.31284204 4.60128828 3.69026584 1.8359375 2.12890625 C1.23007812 1.75636719 0.62421875 1.38382813 0 1 C0 0.67 0 0.34 0 0 Z " fill="#30A771" transform="translate(280,136)"/>
<path d="M0 0 C3.3666515 3.0738992 3.95965982 5.17974966 4.1875 9.8125 C4.03495782 17.45347631 0.4900773 23.93325434 -4 30 C-4.99 30.33 -5.98 30.66 -7 31 C-8.20882096 33.00016466 -8.20882096 33.00016466 -9 35 C-15.26853628 34.62008871 -18.96040149 30.27034097 -22.93359375 25.84765625 C-26.61854983 21.36595291 -28.90576774 17.71432404 -30 12 C-29.34 11.67 -28.68 11.34 -28 11 C-27.773125 11.804375 -27.54625 12.60875 -27.3125 13.4375 C-26.879375 14.283125 -26.44625 15.12875 -26 16 C-23.45224694 16.89386164 -23.45224694 16.89386164 -21 17 C-20.83723958 19.01822917 -20.67447917 21.03645833 -20.51171875 23.0546875 C-20.12606964 25.39519216 -20.12606964 25.39519216 -17 27 C-16.01 27 -15.02 27 -14 27 C-13.67 28.98 -13.34 30.96 -13 33 C-12.21625 32.34 -11.4325 31.68 -10.625 31 C-8 29 -8 29 -6 29 C-5.34 27.68 -4.68 26.36 -4 25 C-3.34 25 -2.68 25 -2 25 C-1.67 22.69 -1.34 20.38 -1 18 C-0.01 18 0.98 18 2 18 C2 13.38 2 8.76 2 4 C1.34 4 0.68 4 0 4 C0 2.68 0 1.36 0 0 Z " fill="#6FBB62" transform="translate(221,215)"/>
<path d="M0 0 C2.97 0 5.94 0 9 0 C9 4.29 9 8.58 9 13 C8.34 13 7.68 13 7 13 C7 9.37 7 5.74 7 2 C6.34 2 5.68 2 5 2 C5 2.66 5 3.32 5 4 C4.34 4 3.68 4 3 4 C3 12.58 3 21.16 3 30 C4.32 30 5.64 30 7 30 C7 26.37 7 22.74 7 19 C7.66 19 8.32 19 9 19 C9 22.96 9 26.92 9 31 C6.03 31 3.06 31 0 31 C0 20.77 0 10.54 0 0 Z " fill="#19A362" transform="translate(80,297)"/>
<path d="M0 0 C0.33 0 0.66 0 1 0 C0.97905273 0.56807373 0.95810547 1.13614746 0.93652344 1.72143555 C0.49192385 15.64049805 0.21334371 28.38906133 9 40 C9 40.66 9 41.32 9 42 C9.99 42.33 10.98 42.66 12 43 C12.33 43.99 12.66 44.98 13 46 C12.34 46 11.68 46 11 46 C9.61767557 44.37373596 8.28062485 42.7074998 7 41 C6.34 42.32 5.68 43.64 5 45 C-2.33170189 33.00266964 -5.24001143 20.71085927 -2.3203125 6.75 C-1.63453774 4.45102177 -0.89799293 2.22360155 0 0 Z " fill="#E3FADE" transform="translate(188,198)"/>
<path d="M0 0 C2.97 0 5.94 0 9 0 C9 10.23 9 20.46 9 31 C6.03 31 3.06 31 0 31 C0 27.04 0 23.08 0 19 C0.66 19.33 1.32 19.66 2 20 C2 23.3 2 26.6 2 30 C3.65 30 5.3 30 7 30 C6.8904307 26.54099522 6.75973152 23.08310891 6.625 19.625 C6.5940625 18.64015625 6.563125 17.6553125 6.53125 16.640625 C6.49257812 15.69960938 6.45390625 14.75859375 6.4140625 13.7890625 C6.3826416 12.91975098 6.3512207 12.05043945 6.31884766 11.15478516 C6.18770567 8.79038206 6.18770567 8.79038206 4 7 C4.33 6.34 4.66 5.68 5 5 C4.34 5 3.68 5 3 5 C2.67 7.64 2.34 10.28 2 13 C1.34 13 0.68 13 0 13 C0 8.71 0 4.42 0 0 Z " fill="#32AC74" transform="translate(243,297)"/>
<path d="M0 0 C1.20366211 0.00483398 1.20366211 0.00483398 2.43164062 0.00976562 C3.68170898 0.02233398 3.68170898 0.02233398 4.95703125 0.03515625 C5.80201172 0.03966797 6.64699219 0.04417969 7.51757812 0.04882812 C9.6015928 0.06060222 11.68557102 0.07853735 13.76953125 0.09765625 C15.09182314 2.74224004 14.86630319 4.77526926 14.83203125 7.72265625 C14.82300781 8.72554688 14.81398438 9.7284375 14.8046875 10.76171875 C14.79308594 11.53257812 14.78148437 12.3034375 14.76953125 13.09765625 C11.79953125 13.09765625 8.82953125 13.09765625 5.76953125 13.09765625 C5.76953125 12.76765625 5.76953125 12.43765625 5.76953125 12.09765625 C8.40953125 12.09765625 11.04953125 12.09765625 13.76953125 12.09765625 C13.76953125 9.12765625 13.76953125 6.15765625 13.76953125 3.09765625 C10.25215804 1.92519851 7.41201805 1.9649934 3.70703125 1.97265625 C2.45792969 1.97007812 1.20882813 1.9675 -0.078125 1.96484375 C-3.13247588 1.87817349 -3.13247588 1.87817349 -5.23046875 3.09765625 C-5.23046875 12.00765625 -5.23046875 20.91765625 -5.23046875 30.09765625 C-2.26005426 31.5828635 0.46717572 31.26823845 3.76953125 31.28515625 C5.02765625 31.29933594 6.28578125 31.31351562 7.58203125 31.328125 C10.86307724 31.44029172 10.86307724 31.44029172 12.76953125 29.09765625 C13.227648 27.12530292 13.227648 27.12530292 13.39453125 24.97265625 C13.51828125 23.69390625 13.64203125 22.41515625 13.76953125 21.09765625 C14.42953125 21.09765625 15.08953125 21.09765625 15.76953125 21.09765625 C16.51953125 23.16015625 16.51953125 23.16015625 16.76953125 26.09765625 C15.61959715 28.55562389 14.18208852 30.77350678 12.76953125 33.09765625 C9.83148129 33.17852001 6.8956505 33.23808455 3.95703125 33.28515625 C3.12365234 33.31029297 2.29027344 33.33542969 1.43164062 33.36132812 C0.22797852 33.37583008 0.22797852 33.37583008 -1 33.390625 C-2.10758667 33.41419067 -2.10758667 33.41419067 -3.23754883 33.43823242 C-5.23046875 33.09765625 -5.23046875 33.09765625 -6.97436523 31.96240234 C-8.78985544 29.2672198 -8.58595127 27.19670107 -8.55859375 23.96875 C-8.5534375 22.76927734 -8.54828125 21.56980469 -8.54296875 20.33398438 C-8.52234375 19.08037109 -8.50171875 17.82675781 -8.48046875 16.53515625 C-8.4753125 15.27767578 -8.47015625 14.02019531 -8.46484375 12.72460938 C-8.38464055 3.40599985 -8.38464055 3.40599985 -7.23046875 1.09765625 C-4.46481493 0.17577164 -2.84763173 -0.02019597 0 0 Z " fill="#E3FEF6" transform="translate(285.23046875,295.90234375)"/>
<path d="M0 0 C3.3 0 6.6 0 10 0 C10.33 4.62 10.66 9.24 11 14 C7.37 14 3.74 14 0 14 C0 9.38 0 4.76 0 0 Z " fill="#BAD372" transform="translate(274,349)"/>
<path d="M0 0 C0.33 1.32 0.66 2.64 1 4 C0.34 4 -0.32 4 -1 4 C-0.773125 4.5775 -0.54625 5.155 -0.3125 5.75 C0 8 0 8 -1.3125 10.25 C-1.869375 10.8275 -2.42625 11.405 -3 12 C-3.66 12 -4.32 12 -5 12 C-5 12.66 -5 13.32 -5 14 C-3.68 13.34 -2.36 12.68 -1 12 C-1 11.34 -1 10.68 -1 10 C-0.34 10 0.32 10 1 10 C1.33 10.99 1.66 11.98 2 13 C0.39957222 15.16528464 -1.17371464 17.04607104 -3 19 C-3.78375 19.9075 -4.5675 20.815 -5.375 21.75 C-8.60544184 24.51895015 -10.88537027 25.11253084 -15 26 C-14.01 22.535 -14.01 22.535 -13 19 C-11.35 18.67 -9.7 18.34 -8 18 C-8 17.34 -8 16.68 -8 16 C-8.66 15.67 -9.32 15.34 -10 15 C-7.91814498 11.44483219 -5.68985284 8.05167855 -3.3125 4.6875 C-2.68988281 3.80449219 -2.06726563 2.92148438 -1.42578125 2.01171875 C-0.95527344 1.34785156 -0.48476563 0.68398437 0 0 Z " fill="#24AB5E" transform="translate(310,237)"/>
<path d="M0 0 C0.66 0 1.32 0 2 0 C2 0.99 2 1.98 2 3 C2.66 2.67 3.32 2.34 4 2 C4 9.59 4 17.18 4 25 C2.35 25 0.7 25 -1 25 C-1.09087891 23.93458984 -1.09087891 23.93458984 -1.18359375 22.84765625 C-1.26738281 21.92855469 -1.35117188 21.00945312 -1.4375 20.0625 C-1.51871094 19.14597656 -1.59992188 18.22945313 -1.68359375 17.28515625 C-1.76044976 15.03840268 -1.76044976 15.03840268 -3 14 C-3.04080783 12.00041636 -3.04254356 9.99954746 -3 8 C-2.34 8 -1.68 8 -1 8 C-0.67 5.36 -0.34 2.72 0 0 Z " fill="#01A658" transform="translate(246,302)"/>
<path d="M0 0 C1.32 0 2.64 0 4 0 C4.33 0.99 4.66 1.98 5 3 C5.33 2.01 5.66 1.02 6 0 C7.32 0 8.64 0 10 0 C10 4.62 10 9.24 10 14 C8.68 14 7.36 14 6 14 C5.67 13.01 5.34 12.02 5 11 C4.67 11.99 4.34 12.98 4 14 C2.68 14 1.36 14 0 14 C0 9.38 0 4.76 0 0 Z " fill="#B0CE5E" transform="translate(198,349)"/>
<path d="M0 0 C0.66 0 1.32 0 2 0 C2 3.63 2 7.26 2 11 C2.99 11.33 3.98 11.66 5 12 C4.67 13.65 4.34 15.3 4 17 C3.34 17 2.68 17 2 17 C2 20.63 2 24.26 2 28 C0.68 28 -0.64 28 -2 28 C-2 19.42 -2 10.84 -2 2 C-1.34 2 -0.68 2 0 2 C0 1.34 0 0.68 0 0 Z " fill="#02A959" transform="translate(85,299)"/>
<path d="M0 0 C1.32 0 2.64 0 4 0 C4 3.63 4 7.26 4 11 C4.66 11 5.32 11 6 11 C6 7.37 6 3.74 6 0 C7.32 0 8.64 0 10 0 C10.02694851 1.95825873 10.04637218 3.91662226 10.0625 5.875 C10.07410156 6.96554687 10.08570313 8.05609375 10.09765625 9.1796875 C10 12 10 12 9 14 C6.36 14 3.72 14 1 14 C-0.38226016 11.23547967 -0.09525387 8.9538637 -0.0625 5.875 C-0.05347656 4.77929688 -0.04445312 3.68359375 -0.03515625 2.5546875 C-0.02355469 1.71164062 -0.01195312 0.86859375 0 0 Z " fill="#B3CC6F" transform="translate(255,349)"/>
<path d="M0 0 C1.98 0 3.96 0 6 0 C8.29612756 9.41002278 8.29612756 9.41002278 8 14 C7.01 14 6.02 14 5 14 C5 13.34 5 12.68 5 12 C3.68 12 2.36 12 1 12 C1 12.66 1 13.32 1 14 C-0.32 14 -1.64 14 -3 14 C-2.69024532 12.22868439 -2.37709575 10.45796222 -2.0625 8.6875 C-1.88847656 7.70136719 -1.71445313 6.71523438 -1.53515625 5.69921875 C-1 3 -1 3 0 0 Z " fill="#ADCB5B" transform="translate(220,349)"/>
<path d="M0 0 C1.32 0 2.64 0 4 0 C4.125 2.875 4.125 2.875 4 6 C3.34 6.66 2.68 7.32 2 8 C2.66 8.66 3.32 9.32 4 10 C4.33 10 4.66 10 5 10 C5 14.95 5 19.9 5 25 C3.35 25 1.7 25 0 25 C0 16.75 0 8.5 0 0 Z " fill="#02A859" transform="translate(231,302)"/>
<path d="M0 0 C0.33 0 0.66 0 1 0 C1 4.95 1 9.9 1 15 C6.94 15 12.88 15 19 15 C19 20.61 19 26.22 19 32 C24.28 32 29.56 32 35 32 C35 32.33 35 32.66 35 33 C32.18743719 33.02684312 29.37512759 33.04676188 26.5625 33.0625 C25.76005859 33.07087891 24.95761719 33.07925781 24.13085938 33.08789062 C22.08704779 33.0965143 20.04316098 33.0522815 18 33 C16.00383446 31.00383446 16.59016573 27.18298037 16.4375 24.4375 C16.39431641 23.72658203 16.35113281 23.01566406 16.30664062 22.28320312 C16.20028223 20.52238088 16.09961154 18.7612168 16 17 C15.01257813 17.01160156 14.02515625 17.02320313 13.0078125 17.03515625 C11.72648438 17.04417969 10.44515625 17.05320313 9.125 17.0625 C7.84882813 17.07410156 6.57265625 17.08570313 5.2578125 17.09765625 C2 17 2 17 0 16 C0 10.72 0 5.44 0 0 Z " fill="#C7EFF7" transform="translate(210,172)"/>
<path d="M0 0 C-1.32 0.33 -2.64 0.66 -4 1 C-3.67 1.99 -3.34 2.98 -3 4 C0.00847418 5.22520264 0.00847418 5.22520264 3 6 C-6.57335034 13.92966606 -20.3267663 12.32968338 -32 12 C-32 11.67 -32 11.34 -32 11 C-30.40671875 10.90912109 -30.40671875 10.90912109 -28.78125 10.81640625 C-18.36284897 10.20729762 -18.36284897 10.20729762 -8 9 C-8 8.34 -8 7.68 -8 7 C-8.66 6.67 -9.32 6.34 -10 6 C-9.01 5.01 -8.02 4.02 -7 3 C-7.99 3 -8.98 3 -10 3 C-10 2.34 -10 1.68 -10 1 C-3.71428571 -1.42857143 -3.71428571 -1.42857143 0 0 Z " fill="#5FB65F" transform="translate(277,268)"/>
<path d="M0 0 C1.97956441 0.14033111 3.95865141 0.2874123 5.9375 0.4375 C7.03964844 0.51871094 8.14179688 0.59992188 9.27734375 0.68359375 C12 1 12 1 13 2 C13.12569503 4.1221998 13.17576773 6.24911345 13.1875 8.375 C13.20167969 9.53773438 13.21585937 10.70046875 13.23046875 11.8984375 C13 15 13 15 11 18 C8.03 17.67 5.06 17.34 2 17 C0.14868517 13.07142246 -0.22004943 10.01224888 -0.125 5.6875 C-0.10695312 4.61886719 -0.08890625 3.55023438 -0.0703125 2.44921875 C-0.04710937 1.64097656 -0.02390625 0.83273437 0 0 Z M2 2 C1.97305149 3.95825873 1.95362782 5.91662226 1.9375 7.875 C1.92589844 8.96554687 1.91429687 10.05609375 1.90234375 11.1796875 C1.80255697 13.95177546 1.80255697 13.95177546 3 16 C5.64 16 8.28 16 11 16 C12.38226016 13.23547967 12.09525387 10.9538637 12.0625 7.875 C12.05347656 6.77929688 12.04445313 5.68359375 12.03515625 4.5546875 C12.02355469 3.71164062 12.01195312 2.86859375 12 2 C10.68 2 9.36 2 8 2 C8 5.63 8 9.26 8 13 C7.34 13 6.68 13 6 13 C6 9.37 6 5.74 6 2 C4.68 2 3.36 2 2 2 Z " fill="#F7FED8" transform="translate(253,347)"/>
<path d="M0 0 C2.64 0 5.28 0 8 0 C8 0.99 8 1.98 8 3 C6.68 3 5.36 3 4 3 C4 3.66 4 4.32 4 5 C5.32 5 6.64 5 8 5 C8 5.99 8 6.98 8 8 C6.68 8 5.36 8 4 8 C4 8.99 4 9.98 4 11 C5.32 11 6.64 11 8 11 C8 11.99 8 12.98 8 14 C5.36 14 2.72 14 0 14 C0 9.38 0 4.76 0 0 Z " fill="#B0C963" transform="translate(294,349)"/>
<path d="M0 0 C0.33 0.66 0.66 1.32 1 2 C1.66 2 2.32 2 3 2 C4.13764351 6.26616316 5 9.56486311 5 14 C2.03 14 -0.94 14 -4 14 C-4.125 5.375 -4.125 5.375 -3 2 C-2.34 2 -1.68 2 -1 2 C-0.67 1.34 -0.34 0.68 0 0 Z " fill="#17A665" transform="translate(161,314)"/>
<path d="M0 0 C2.97 0 5.94 0 9 0 C9 8.58 9 17.16 9 26 C8.34 26 7.68 26 7 26 C6.67 17.75 6.34 9.5 6 1 C4.35 1 2.7 1 1 1 C1 10.9 1 20.8 1 31 C0.67 31 0.34 31 0 31 C0 20.77 0 10.54 0 0 Z " fill="#3DAB78" transform="translate(309,297)"/>
<path d="M0 0 C0.68707555 2.49064888 1 4.37886292 1 7 C1.66 7.66 2.32 8.32 3 9 C5.75589777 8.98252073 8.38786676 8.86136729 11.125 8.625 C12.25615234 8.53992188 12.25615234 8.53992188 13.41015625 8.453125 C15.27418096 8.3115535 17.13721137 8.15700041 19 8 C14.58545213 12.41454787 5.88913548 12.82435777 -0.1484375 13.19140625 C-2.44093722 13.18812187 -4.71225556 13.14232512 -7 13 C-6.36610765 9.50155614 -4.94822306 7.15913124 -2.9375 4.25 C-2.38964844 3.45078125 -1.84179688 2.6515625 -1.27734375 1.828125 C-0.85582031 1.22484375 -0.43429688 0.6215625 0 0 Z " fill="#6FBE70" transform="translate(245,246)"/>
<path d="M0 0 C0.66 0.99 1.32 1.98 2 3 C1.69728039 4.34061543 1.36162029 5.67405895 1 7 C1.37907282 9.18703385 1.37907282 9.18703385 2 11 C2.99 11 3.98 11 5 11 C4.6121322 13.48660455 4.29037521 14.72345219 2.44140625 16.484375 C1.82136719 16.90203125 1.20132813 17.3196875 0.5625 17.75 C-0.05496094 18.17796875 -0.67242187 18.6059375 -1.30859375 19.046875 C-3 20 -3 20 -5 20 C-4.52432875 12.74601342 -2.70533406 6.73187777 0 0 Z " fill="#5BBA55" transform="translate(229,237)"/>
<path d="M0 0 C0.99 0.33 1.98 0.66 3 1 C2.67 2.98 2.34 4.96 2 7 C1.34 7 0.68 7 0 7 C-0.0825 8.0725 -0.165 9.145 -0.25 10.25 C-1.05476902 14.2738451 -1.87729874 15.48169253 -5 18 C-5 17.34 -5 16.68 -5 16 C-5.66 16 -6.32 16 -7 16 C-6.67 16.99 -6.34 17.98 -6 19 C-7.65 19.33 -9.3 19.66 -11 20 C-11 19.34 -11 18.68 -11 18 C-10.34 18 -9.68 18 -9 18 C-7.52952664 14.08936776 -7.52952664 14.08936776 -7 10 C-6.34 10 -5.68 10 -5 10 C-5 8.68 -5 7.36 -5 6 C-4.01 5.34 -3.02 4.68 -2 4 C-0.80767387 1.94996045 -0.80767387 1.94996045 0 0 Z " fill="#07A758" transform="translate(316,231)"/>
<path d="M0 0 C0.33 0.66 0.66 1.32 1 2 C-1.97 2 -4.94 2 -8 2 C-10.39097809 8.44524529 -11.53651587 14.16607445 -12 21 C-12.18556599 23.20849669 -12.37308006 25.41683052 -12.5625 27.625 C-12.70916739 29.41659858 -12.85530469 31.20824107 -13 33 C-13.33 33 -13.66 33 -14 33 C-14 22.77 -14 12.54 -14 2 C-12.68 2.33 -11.36 2.66 -10 3 C-10 2.34 -10 1.68 -10 1 C-6.78548731 -0.60725635 -3.56387464 -0.05748185 0 0 Z " fill="#BFF1DA" transform="translate(420,295)"/>
<path d="M0 0 C2.97 0 5.94 0 9 0 C9 0.99 9 1.98 9 3 C8.34 3 7.68 3 7 3 C7 6.63 7 10.26 7 14 C5.35 13.67 3.7 13.34 2 13 C2 9.7 2 6.4 2 3 C1.34 3 0.68 3 0 3 C0 2.01 0 1.02 0 0 Z " fill="#AAC958" transform="translate(237,349)"/>
<path d="M0 0 C2.38477327 3.5771599 4.22495863 6.91913267 3.75 11.3125 C3 13 3 13 1 14 C0.01 13.01 -0.98 12.02 -2 11 C-1.67 10.01 -1.34 9.02 -1 8 C-0.34 8 0.32 8 1 8 C0.67 5.36 0.34 2.72 0 0 Z M-7 6 C-6.34 6 -5.68 6 -5 6 C-4.34 8.31 -3.68 10.62 -3 13 C-2.34 13 -1.68 13 -1 13 C-1.33 15.31 -1.66 17.62 -2 20 C-4.64 20 -7.28 20 -10 20 C-10 19.67 -10 19.34 -10 19 C-7.69 19 -5.38 19 -3 19 C-3 17.68 -3 16.36 -3 15 C-4.65 14.67 -6.3 14.34 -8 14 C-7.67 11.36 -7.34 8.72 -7 6 Z " fill="#21AA6B" transform="translate(159,303)"/>
<path d="M0 0 C1.32 0 2.64 0 4 0 C4 6.27 4 12.54 4 19 C2.68 19 1.36 19 0 19 C0 12.73 0 6.46 0 0 Z " fill="#EBFEF6" transform="translate(344,303)"/>
<path d="M0 0 C2.33944736 0.28730055 4.6739143 0.61936779 7 1 C7 3.97 7 6.94 7 10 C4.36 10 1.72 10 -1 10 C-1.02689216 8.52093108 -1.04634621 7.04172517 -1.0625 5.5625 C-1.07410156 4.73878906 -1.08570313 3.91507812 -1.09765625 3.06640625 C-1 1 -1 1 0 0 Z " fill="#0FA25E" transform="translate(292,298)"/>
<path d="M0 0 C0.66 0 1.32 0 2 0 C2.13277344 0.84304687 2.26554687 1.68609375 2.40234375 2.5546875 C2.57894531 3.65039062 2.75554687 4.74609375 2.9375 5.875 C3.19853516 7.51082031 3.19853516 7.51082031 3.46484375 9.1796875 C3.85551159 11.93821546 3.85551159 11.93821546 5 14 C5.12257461 15.95549256 5.17552388 17.91570618 5.1875 19.875 C5.20167969 20.92429688 5.21585937 21.97359375 5.23046875 23.0546875 C5.00504937 25.93547071 4.48964317 27.56240208 3 30 C1.08418074 26.16836149 1.58107085 21.28561506 1.39453125 17.03320312 C1.56827928 13.20232099 1.56827928 13.20232099 0 10 C-0.07205511 8.31391034 -0.08386068 6.62499341 -0.0625 4.9375 C-0.05347656 4.01839844 -0.04445313 3.09929687 -0.03515625 2.15234375 C-0.02355469 1.44207031 -0.01195312 0.73179687 0 0 Z " fill="#05A45B" transform="translate(320,182)"/>
<path d="M0 0 C1.20366211 0.00483398 1.20366211 0.00483398 2.43164062 0.00976562 C3.68170898 0.02233398 3.68170898 0.02233398 4.95703125 0.03515625 C5.80201172 0.03966797 6.64699219 0.04417969 7.51757812 0.04882812 C9.6015928 0.06060222 11.68557102 0.07853735 13.76953125 0.09765625 C15.09182314 2.74224004 14.86630319 4.77526926 14.83203125 7.72265625 C14.82300781 8.72554688 14.81398438 9.7284375 14.8046875 10.76171875 C14.79308594 11.53257812 14.78148437 12.3034375 14.76953125 13.09765625 C11.79953125 13.09765625 8.82953125 13.09765625 5.76953125 13.09765625 C5.76953125 12.76765625 5.76953125 12.43765625 5.76953125 12.09765625 C8.40953125 12.09765625 11.04953125 12.09765625 13.76953125 12.09765625 C13.76953125 9.12765625 13.76953125 6.15765625 13.76953125 3.09765625 C10.25215804 1.92519851 7.41201805 1.9649934 3.70703125 1.97265625 C2.45792969 1.97007812 1.20882813 1.9675 -0.078125 1.96484375 C-3.13247588 1.87817349 -3.13247588 1.87817349 -5.23046875 3.09765625 C-5.56046875 11.34765625 -5.89046875 19.59765625 -6.23046875 28.09765625 C-6.56046875 28.09765625 -6.89046875 28.09765625 -7.23046875 28.09765625 C-7.23046875 19.18765625 -7.23046875 10.27765625 -7.23046875 1.09765625 C-4.46481493 0.17577164 -2.84763173 -0.02019597 0 0 Z " fill="#A5E4CA" transform="translate(285.23046875,295.90234375)"/>
<path d="M0 0 C0.82741699 0.01047363 1.65483398 0.02094727 2.50732422 0.03173828 C3.40322266 0.03818359 4.29912109 0.04462891 5.22216797 0.05126953 C6.62789063 0.07640625 6.62789063 0.07640625 8.06201172 0.10205078 C9.00689453 0.11107422 9.95177734 0.12009766 10.92529297 0.12939453 C13.26278464 0.15300556 15.59977295 0.18593562 17.93701172 0.22705078 C17.17904297 0.97341797 16.42107422 1.71978516 15.64013672 2.48876953 C12.98621472 5.17720785 10.57609801 7.96485627 8.17138672 10.87158203 C7.76404297 11.31888672 7.35669922 11.76619141 6.93701172 12.22705078 C6.60701172 12.22705078 6.27701172 12.22705078 5.93701172 12.22705078 C5.93701172 9.91705078 5.93701172 7.60705078 5.93701172 5.22705078 C6.59701172 4.89705078 7.25701172 4.56705078 7.93701172 4.22705078 C8.26701172 3.23705078 8.59701172 2.24705078 8.93701172 1.22705078 C7.94701172 1.55705078 6.95701172 1.88705078 5.93701172 2.22705078 C4.2090582 2.29508045 2.47865807 2.31200723 0.74951172 2.28955078 C-0.60207031 2.27601563 -0.60207031 2.27601563 -1.98095703 2.26220703 C-2.66802734 2.25060547 -3.35509766 2.23900391 -4.06298828 2.22705078 C-2.06298828 0.22705078 -2.06298828 0.22705078 0 0 Z " fill="#0EA35F" transform="translate(282.06298828125,201.77294921875)"/>
<path d="M0 0 C1.98 0 3.96 0 6 0 C6 3.96 6 7.92 6 12 C4.02 12 2.04 12 0 12 C0 8.04 0 4.08 0 0 Z " fill="#E2FDF4" transform="translate(89,316)"/>
<path d="M0 0 C2.97 0 5.94 0 9 0 C9 4.29 9 8.58 9 13 C8.34 13 7.68 13 7 13 C7 9.04 7 5.08 7 1 C5.35 1.33 3.7 1.66 2 2 C1.67 11.57 1.34 21.14 1 31 C0.67 31 0.34 31 0 31 C0 20.77 0 10.54 0 0 Z " fill="#48B583" transform="translate(80,297)"/>
<path d="M0 0 C2 3 4 6 6 9 C5.67 9.66 5.34 10.32 5 11 C4.01 11 3.02 11 2 11 C2 12.65 2 14.3 2 16 C2.66 16 3.32 16 4 16 C3.67 16.66 3.34 17.32 3 18 C-0.22404904 16.38797548 -1.3209873 13.06208432 -3 10 C-3.74907044 8.72861853 -4.49902886 7.4577597 -5.25 6.1875 C-7 3 -7 3 -7 1 C-3.17475764 2.450954 -1.80909034 4.38181932 0 8 C0 8.66 0 9.32 0 10 C0.66 10 1.32 10 2 10 C1.505 8.63875 1.505 8.63875 1 7.25 C0 4 0 4 0 0 Z " fill="#8AC564" transform="translate(189,235)"/>
<path d="M0 0 C0.99 0.495 0.99 0.495 2 1 C2 8.92 2 16.84 2 25 C2.99 25 3.98 25 5 25 C5 25.66 5 26.32 5 27 C7.3431213 26.74438677 9.67843403 26.40729228 12 26 C12.33 25.34 12.66 24.68 13 24 C15.86724686 24.57344937 16.8614515 24.8614515 19 27 C16.04412889 28.47793555 13.35002355 28.17053651 10.0625 28.1875 C8.81597656 28.20167969 7.56945312 28.21585937 6.28515625 28.23046875 C3 28 3 28 0 26 C-0.34057617 23.38623047 -0.34057617 23.38623047 -0.29296875 20.1171875 C-0.2784668 18.36728516 -0.2784668 18.36728516 -0.26367188 16.58203125 C-0.23853516 15.35871094 -0.21339844 14.13539063 -0.1875 12.875 C-0.17396484 11.64394531 -0.16042969 10.41289062 -0.14648438 9.14453125 C-0.11103543 6.09592157 -0.06162079 3.048175 0 0 Z " fill="#1DA263" transform="translate(336,300)"/>
<path d="M0 0 C0.66 0 1.32 0 2 0 C2.33 4.62 2.66 9.24 3 14 C9.93 14.495 9.93 14.495 17 15 C17 15.66 17 16.32 17 17 C11.39 17 5.78 17 0 17 C0 11.39 0 5.78 0 0 Z " fill="#CCF1F8" transform="translate(245,154)"/>
<path d="M0 0 C6.6 0 13.2 0 20 0 C20 1.98 20 3.96 20 6 C18.02 6 16.04 6 14 6 C15.32 5.67 16.64 5.34 18 5 C18 4.01 18 3.02 18 2 C15.35319096 2.11339204 12.70822482 2.24012873 10.0625 2.375 C8.93038086 2.42140625 8.93038086 2.42140625 7.77539062 2.46875 C5.84492605 2.5726315 3.92057919 2.77895614 2 3 C1.67 3.66 1.34 4.32 1 5 C2.65 5 4.3 5 6 5 C6 5.33 6 5.66 6 6 C4.02 6 2.04 6 0 6 C0 4.02 0 2.04 0 0 Z " fill="#209761" transform="translate(200,297)"/>
<path d="M0 0 C10.94806325 1.45310658 20.33332088 11.63515864 28 19 C27.01 19.66 26.02 20.32 25 21 C24.64550781 20.52691406 24.29101562 20.05382812 23.92578125 19.56640625 C19.36895877 13.90623692 14.0947494 10.04593903 8.0859375 6.078125 C5.26243064 4.17672544 2.62389825 2.16544763 0 0 Z " fill="#50A380" transform="translate(280,136)"/>
<path d="M0 0 C2.05078125 0.03255208 4.1015625 0.06510417 6.15234375 0.09765625 C6.48234375 0.75765625 6.81234375 1.41765625 7.15234375 2.09765625 C4.51234375 2.09765625 1.87234375 2.09765625 -0.84765625 2.09765625 C-0.84765625 6.38765625 -0.84765625 10.67765625 -0.84765625 15.09765625 C-2.82765625 15.09765625 -4.80765625 15.09765625 -6.84765625 15.09765625 C-6.84765625 10.80765625 -6.84765625 6.51765625 -6.84765625 2.09765625 C-6.51765625 2.09765625 -6.18765625 2.09765625 -5.84765625 2.09765625 C-5.84765625 6.05765625 -5.84765625 10.01765625 -5.84765625 14.09765625 C-4.85765625 14.09765625 -3.86765625 14.09765625 -2.84765625 14.09765625 C-2.85925781 13.17082031 -2.87085937 12.24398438 -2.8828125 11.2890625 C-2.89183594 10.09152344 -2.90085937 8.89398438 -2.91015625 7.66015625 C-2.92175781 6.46519531 -2.93335937 5.27023437 -2.9453125 4.0390625 C-2.81615523 0.14884541 -2.81615523 0.14884541 0 0 Z " fill="#D6FCEF" transform="translate(95.84765625,294.90234375)"/>
<path d="M0 0 C2.64 0 5.28 0 8 0 C8.1953125 6.0546875 8.1953125 6.0546875 8 8 C7.34 8.66 6.68 9.32 6 10 C4.68 10 3.36 10 2 10 C2 9.34 2 8.68 2 8 C3.32 8 4.64 8 6 8 C6 7.01 6 6.02 6 5 C3.13275314 5.57344937 2.1385485 5.8614515 0 8 C0 5.36 0 2.72 0 0 Z " fill="#139F5F" transform="translate(291,317)"/>
<path d="M0 0 C0.86625 0.556875 1.7325 1.11375 2.625 1.6875 C1.635 2.0175 0.645 2.3475 -0.375 2.6875 C-0.375 4.0075 -0.375 5.3275 -0.375 6.6875 C-1.633125 6.56375 -2.89125 6.44 -4.1875 6.3125 C-5.24904297 6.20808594 -5.24904297 6.20808594 -6.33203125 6.1015625 C-8.375 5.6875 -8.375 5.6875 -11.375 3.6875 C-10.715 3.6875 -10.055 3.6875 -9.375 3.6875 C-9.375 3.0275 -9.375 2.3675 -9.375 1.6875 C-4.20576923 -1.63557692 -4.20576923 -1.63557692 0 0 Z " fill="#41B451" transform="translate(282.375,267.3125)"/>
<path d="M0 0 C2.31 0.33 4.62 0.66 7 1 C6.01 1.495 6.01 1.495 5 2 C4.60828247 3.65391846 4.27942455 5.32345271 4 7 C3.67 7.99 3.34 8.98 3 10 C1.02 10.33 -0.96 10.66 -3 11 C-2.53199289 6.94393835 -2.12046792 3.53411321 0 0 Z " fill="#02A557" transform="translate(149,299)"/>
<path d="M0 0 C2.97 0 5.94 0 9 0 C9 1.98 9 3.96 9 6 C6.03 6 3.06 6 0 6 C0 4.02 0 2.04 0 0 Z " fill="#1E9F65" transform="translate(122,309)"/>
<path d="M0 0 C0.33 0 0.66 0 1 0 C1 7.59 1 15.18 1 23 C-2.42190681 18.43745759 -2.38319254 17.02489366 -2.3125 11.5 C-2.30863281 10.1903125 -2.30476563 8.880625 -2.30078125 7.53125 C-2.0312147 4.36646865 -1.68372826 2.62956764 0 0 Z " fill="#C8ECDB" transform="translate(335,301)"/>
<path d="M0 0 C0.33 0 0.66 0 1 0 C1.66 7.92 2.32 15.84 3 24 C5.31 24 7.62 24 10 24 C10 24.33 10 24.66 10 25 C6.7 25 3.4 25 0 25 C0 16.75 0 8.5 0 0 Z " fill="#BCF1DB" transform="translate(183,297)"/>
<path d="M0 0 C1 2 1 2 0.4765625 3.98828125 C0.05503906 5.13876953 0.05503906 5.13876953 -0.375 6.3125 C-2.23924361 11.44352564 -3.1282332 16.04625681 -3.09765625 21.51953125 C-3.09443359 22.54111328 -3.09121094 23.56269531 -3.08789062 24.61523438 C-3.07951172 25.67033203 -3.07113281 26.72542969 -3.0625 27.8125 C-3.05798828 28.88693359 -3.05347656 29.96136719 -3.04882812 31.06835938 C-3.03707729 33.71229683 -3.02064787 36.35611952 -3 39 C-6.0988883 35.9011117 -5.29437393 32.66024842 -5.32226562 28.42578125 C-5.31904297 27.29527344 -5.31582031 26.16476563 -5.3125 25 C-5.32861328 23.90042969 -5.34472656 22.80085938 -5.36132812 21.66796875 C-5.36543471 14.74425973 -4.79713117 8.4082982 -2 2 C-1.34 1.34 -0.68 0.68 0 0 Z " fill="#F1FEEA" transform="translate(178,181)"/>
<path d="M0 0 C1.32 0 2.64 0 4 0 C4 1.65 4 3.3 4 5 C3.01 5 2.02 5 1 5 C1.33 7.97 1.66 10.94 2 14 C2.66 14 3.32 14 4 14 C4 15.98 4 17.96 4 20 C2.68 20 1.36 20 0 20 C0 13.4 0 6.8 0 0 Z " fill="#D9FAEF" transform="translate(376,303)"/>
<path d="M0 0 C3.3 0 6.6 0 10 0 C10 0.66 10 1.32 10 2 C9.01 2 8.02 2 7 2 C7.66 3.32 8.32 4.64 9 6 C6.03 6 3.06 6 0 6 C0 4.02 0 2.04 0 0 Z " fill="#E2FEF4" transform="translate(122,303)"/>
<path d="M0 0 C2 3 2 3 2 5 C1.401875 5.020625 0.80375 5.04125 0.1875 5.0625 C-2.43314602 5.90456616 -2.43314602 5.90456616 -3.75 9.5625 C-4.1625 10.696875 -4.575 11.83125 -5 13 C-7.475 12.01 -7.475 12.01 -10 11 C-7.58662205 6.17324411 -4.13937592 3.30015998 0 0 Z " fill="#37B063" transform="translate(300,250)"/>
<path d="M0 0 C3.3 0 6.6 0 10 0 C10 3.96 10 7.92 10 12 C10.99 12 11.98 12 13 12 C13 10.02 13 8.04 13 6 C13.33 6 13.66 6 14 6 C14 8.64 14 11.28 14 14 C12.02 14 10.04 14 8 14 C8 9.71 8 5.42 8 1 C5.36 1 2.72 1 0 1 C0 0.67 0 0.34 0 0 Z " fill="#D1FCEC" transform="translate(229,296)"/>
<path d="M0 0 C1 2 1 2 0.22265625 4.3828125 C-0.16019531 5.28773438 -0.54304687 6.19265625 -0.9375 7.125 C-1.31777344 8.03507813 -1.69804687 8.94515625 -2.08984375 9.8828125 C-2.39019531 10.58148438 -2.69054687 11.28015625 -3 12 C-3.66 11.67 -4.32 11.34 -5 11 C-5.598125 11.804375 -6.19625 12.60875 -6.8125 13.4375 C-9 16 -9 16 -12 17 C-10.53416665 12.45928635 -7.95468267 9.23733031 -4.875 5.6875 C-4.40707031 5.13771484 -3.93914062 4.58792969 -3.45703125 4.02148438 C-2.31047517 2.67603591 -1.15602549 1.337321 0 0 Z " fill="#48B16F" transform="translate(200,148)"/>
<path d="M0 0 C0.33 1.32 0.66 2.64 1 4 C0.34 4 -0.32 4 -1 4 C-0.97679687 4.58007812 -0.95359375 5.16015625 -0.9296875 5.7578125 C-0.81957575 10.52407812 -0.81772846 14.63545692 -3 19 C-5.125 19.875 -5.125 19.875 -7 20 C-7 18.35 -7 16.7 -7 15 C-6.34 15 -5.68 15 -5 15 C-5.103125 14.195625 -5.20625 13.39125 -5.3125 12.5625 C-4.8775623 7.60421026 -2.59354581 4.16819862 0 0 Z " fill="#48B850" transform="translate(251,235)"/>
<path d="M0 0 C0.66 0 1.32 0 2 0 C3.56575099 4.85166093 4.24108411 8.87803721 4.1953125 14.02734375 C4.18886719 15.31318359 4.18242187 16.59902344 4.17578125 17.92382812 C4.15907601 19.26172154 4.14214619 20.59961217 4.125 21.9375 C4.11495322 23.30272783 4.10583036 24.6679628 4.09765625 26.03320312 C4.07417605 29.35565199 4.04133359 32.67773321 4 36 C3.34 36 2.68 36 2 36 C2.01047363 35.30028076 2.02094727 34.60056152 2.03173828 33.87963867 C2.07381615 30.64896368 2.09948852 27.41834666 2.125 24.1875 C2.14175781 23.08728516 2.15851563 21.98707031 2.17578125 20.85351562 C2.21813455 13.67463138 1.56258545 7.00873305 0 0 Z " fill="#D5FAED" transform="translate(323,184)"/>
<path d="M0 0 C0.721875 0.185625 1.44375 0.37125 2.1875 0.5625 C5.12826973 1.01995307 7.14103058 0.73516357 10 0 C10 0.99 10 1.98 10 3 C8.68 3 7.36 3 6 3 C6 3.66 6 4.32 6 5 C6.99 5.33 7.98 5.66 9 6 C6.70858714 6.05384521 4.41681812 6.09272087 2.125 6.125 C0.21074219 6.15980469 0.21074219 6.15980469 -1.7421875 6.1953125 C-5 6 -5 6 -7 4 C-3.7 4.33 -0.4 4.66 3 5 C3 4.01 3 3.02 3 2 C2.01 2 1.02 2 0 2 C0 1.34 0 0.68 0 0 Z " fill="#1DAA69" transform="translate(287,322)"/>
<path d="M0 0 C2 1 2 1 3.0703125 3.94140625 C3.41835938 5.13636719 3.76640625 6.33132813 4.125 7.5625 C4.65480469 9.35880859 4.65480469 9.35880859 5.1953125 11.19140625 C5.46085937 12.11824219 5.72640625 13.04507812 6 14 C3.03 14 0.06 14 -3 14 C-3.33 12.68 -3.66 11.36 -4 10 C-3.34 10 -2.68 10 -2 10 C-2 10.99 -2 11.98 -2 13 C-0.02 13 1.96 13 4 13 C4 12.01 4 11.02 4 10 C2.35 9.67 0.7 9.34 -1 9 C-0.67 6.03 -0.34 3.06 0 0 Z " fill="#24A369" transform="translate(415,314)"/>
<path d="M0 0 C1.62463842 -0.05395478 3.24978541 -0.09277195 4.875 -0.125 C5.77992188 -0.14820313 6.68484375 -0.17140625 7.6171875 -0.1953125 C10 0 10 0 12 2 C12 2.99 12 3.98 12 5 C11.34 5 10.68 5 10 5 C10 4.01 10 3.02 10 2 C7.03 2 4.06 2 1 2 C1 2.99 1 3.98 1 5 C1.66 5 2.32 5 3 5 C3 8.3 3 11.6 3 15 C2.67 15 2.34 15 2 15 C2 12.03 2 9.06 2 6 C1.01 5.67 0.02 5.34 -1 5 C-0.67 3.35 -0.34 1.7 0 0 Z " fill="#F9FEE3" transform="translate(236,347)"/>
<path d="M0 0 C2.11464837 0.45313894 3.84029857 0.90708281 5.71875 2 C8.744969 3.32656175 11.46065322 3.42763919 14.75 3.625 C15.92046875 3.69976562 17.0909375 3.77453125 18.296875 3.8515625 C19.63492187 3.92503906 19.63492187 3.92503906 21 4 C21 4.33 21 4.66 21 5 C10.48063576 5.36886082 1.24569094 4.68949387 -9 2 C-9 1.67 -9 1.34 -9 1 C-6.03 1 -3.06 1 0 1 C0 0.67 0 0.34 0 0 Z " fill="#95C887" transform="translate(237,276)"/>
<path d="M0 0 C0.33 0 0.66 0 1 0 C1 7.92 1 15.84 1 24 C-1.67469232 19.98796153 -1.51997922 16.7191361 -1.75 12 C-1.83314453 10.77023437 -1.83314453 10.77023437 -1.91796875 9.515625 C-1.96050781 8.72671875 -2.00304687 7.9378125 -2.046875 7.125 C-2.08651367 6.40570313 -2.12615234 5.68640625 -2.16699219 4.9453125 C-2 3 -2 3 0 0 Z " fill="#E8FEFA" transform="translate(366,300)"/>
<path d="M0 0 C1.42944945 2.35438733 2.08661261 3.48032433 1.625 6.25 C1.41875 6.8275 1.2125 7.405 1 8 C0.34 8 -0.32 8 -1 8 C-1 8.66 -1 9.32 -1 10 C0.98 10 2.96 10 5 10 C2.4041044 12.87402727 0.78630702 14.24432948 -3 15 C-2.5547115 9.72684667 -1.91626837 4.98229776 0 0 Z " fill="#6EB960" transform="translate(227,242)"/>
<path d="M0 0 C0.66 0 1.32 0 2 0 C2.33 0.99 2.66 1.98 3 3 C-0.22236666 7.35967254 -4.10655683 12.55327842 -9 15 C-9.3125 12.6875 -9.3125 12.6875 -9 10 C-6.625 8.4375 -6.625 8.4375 -4 7 C-2.80767387 4.94996045 -2.80767387 4.94996045 -2 3 C-1.34 2.67 -0.68 2.34 0 2 C0 1.34 0 0.68 0 0 Z " fill="#25A963" transform="translate(309,247)"/>
<path d="M0 0 C0.66 0.33 1.32 0.66 2 1 C1.34 2.32 0.68 3.64 0 5 C-0.66 5 -1.32 5 -2 5 C-2.433125 6.2065625 -2.433125 6.2065625 -2.875 7.4375 C-4 10 -4 10 -6 11 C-6 10.34 -6 9.68 -6 9 C-6.66 9 -7.32 9 -8 9 C-8.33 9.99 -8.66 10.98 -9 12 C-9.66 11.67 -10.32 11.34 -11 11 C-7.6189962 6.86378916 -4.33409466 3.18683431 0 0 Z " fill="#47AD6B" transform="translate(249,211)"/>
<path d="M0 0 C0.99 0 1.98 0 3 0 C3 3.96 3 7.92 3 12 C4.32 12.33 5.64 12.66 7 13 C5.00045254 13.04254356 2.99958364 13.04080783 1 13 C0 12 0 12 -0.09765625 9.27734375 C-0.08605469 8.17519531 -0.07445312 7.07304687 -0.0625 5.9375 C-0.05347656 4.83277344 -0.04445312 3.72804688 -0.03515625 2.58984375 C-0.02355469 1.73519531 -0.01195312 0.88054687 0 0 Z " fill="#ADC763" transform="translate(255,349)"/>
<path d="M0 0 C0.66 0 1.32 0 2 0 C2 2.97 2 5.94 2 9 C-0.97 9 -3.94 9 -7 9 C-7 8.01 -7 7.02 -7 6 C-5.5459375 5.62875 -5.5459375 5.62875 -4.0625 5.25 C-2.5465625 4.63125 -2.5465625 4.63125 -1 4 C-0.03122943 1.96756452 -0.03122943 1.96756452 0 0 Z " fill="#02A75C" transform="translate(381,318)"/>
<path d="M0 0 C0.33 0.66 0.66 1.32 1 2 C0.36328125 3.69921875 0.36328125 3.69921875 -0.6875 5.6875 C-1.05746094 6.39261719 -1.42742187 7.09773437 -1.80859375 7.82421875 C-3.49755243 10.90864493 -5.22805114 13.96237338 -7 17 C-8.32 16.01 -9.64 15.02 -11 14 C-10.54109375 13.49210938 -10.0821875 12.98421875 -9.609375 12.4609375 C-6.05320338 8.47145085 -2.83291718 4.53266749 0 0 Z " fill="#DDF9E1" transform="translate(254,227)"/>
<path d="M0 0 C-0.99 0.33 -1.98 0.66 -3 1 C-3.33 1.99 -3.66 2.98 -4 4 C-5.62324086 4.22162329 -7.248721 4.42689803 -8.875 4.625 C-10.23238281 4.79902344 -10.23238281 4.79902344 -11.6171875 4.9765625 C-12.40351563 4.98429688 -13.18984375 4.99203125 -14 5 C-14.66 4.34 -15.32 3.68 -16 3 C-10.9749232 -0.3500512 -5.9145821 -0.11829164 0 0 Z " fill="#0FA45A" transform="translate(277,203)"/>
<path d="M0 0 C2.64 0 5.28 0 8 0 C8 0.99 8 1.98 8 3 C6.68 3 5.36 3 4 3 C4 3.66 4 4.32 4 5 C5.32 5 6.64 5 8 5 C8 5.99 8 6.98 8 8 C5.69 7.67 3.38 7.34 1 7 C1.020625 6.21625 1.04125 5.4325 1.0625 4.625 C1.18684063 2.01885039 1.18684063 2.01885039 0 0 Z " fill="#B7CF6E" transform="translate(294,349)"/>
<path d="M0 0 C2.97 0 5.94 0 9 0 C9 0.99 9 1.98 9 3 C8.34 3 7.68 3 7 3 C7 6.63 7 10.26 7 14 C6.67 14 6.34 14 6 14 C6 10.04 6 6.08 6 2 C5.01 1.67 4.02 1.34 3 1 C3 4.96 3 8.92 3 13 C2.67 13 2.34 13 2 13 C2 9.7 2 6.4 2 3 C1.34 3 0.68 3 0 3 C0 2.01 0 1.02 0 0 Z " fill="#C5D98F" transform="translate(237,349)"/>
<path d="M0 0 C4 1 4 1 6 2 C6 3.32 6 4.64 6 6 C5.01 6.33 4.02 6.66 3 7 C3 6.34 3 5.68 3 5 C2.34 5 1.68 5 1 5 C1.65585189 8.60992379 1.65585189 8.60992379 3 12 C2.01 12 1.02 12 0 12 C0 8.04 0 4.08 0 0 Z " fill="#B8D26F" transform="translate(275,350)"/>
<path d="M0 0 C1.27230469 0.00902344 2.54460937 0.01804687 3.85546875 0.02734375 C5.31919922 0.04474609 5.31919922 0.04474609 6.8125 0.0625 C6.8125 1.0525 6.8125 2.0425 6.8125 3.0625 C1.2025 3.0625 -4.4075 3.0625 -10.1875 3.0625 C-10.1875 2.4025 -10.1875 1.7425 -10.1875 1.0625 C-6.62704823 -0.12431726 -3.74941663 -0.03439832 0 0 Z " fill="#E1FDF7" transform="translate(379.1875,294.9375)"/>
<path d="M0 0 C1.65 0 3.3 0 5 0 C4.64598897 3.18609925 4.16972964 4.79066678 2.125 7.3125 C0 9 0 9 -3 9 C-3 9.66 -3 10.32 -3 11 C-3.66 11 -4.32 11 -5 11 C-3.4169423 6.7257442 -0.49431596 4.73468206 3 2 C2.01 1.34 1.02 0.68 0 0 Z " fill="#CFF6E6" transform="translate(296,201)"/>
<path d="M0 0 C0.66 0.33 1.32 0.66 2 1 C1.67 7.6 1.34 14.2 1 21 C0.67 21 0.34 21 0 21 C-0.33 16.71 -0.66 12.42 -1 8 C-1.99 8.33 -2.98 8.66 -4 9 C-2.79618552 6.50638429 -1.54571278 4.31856917 0 2 C0 1.34 0 0.68 0 0 Z " fill="#25AD53" transform="translate(194,157)"/>
<path d="M0 0 C-0.33 0.66 -0.66 1.32 -1 2 C-5.56196903 3.14391716 -9.71610338 2.95806669 -14.375 2.5625 C-15.62023437 2.46066406 -16.86546875 2.35882813 -18.1484375 2.25390625 C-19.55996094 2.12822266 -19.55996094 2.12822266 -21 2 C-21 1.67 -21 1.34 -21 1 C-13.97360585 0.25194283 -7.06608191 -0.13794954 0 0 Z " fill="#66B660" transform="translate(266,271)"/>
<path d="M0 0 C0.66 0.33 1.32 0.66 2 1 C1.67 1.99 1.34 2.98 1 4 C0.34 4 -0.32 4 -1 4 C-1.33 4.99 -1.66 5.98 -2 7 C-4.31 6.67 -6.62 6.34 -9 6 C-6.45368965 3.02930459 -3.57769851 1.5224249 0 0 Z " fill="#53B868" transform="translate(286,261)"/>
<path d="M0 0 C1.13517413 3.40552239 1.04701353 4.6173409 0 8 C-2.02773042 11.18643352 -3.08697102 12.73024144 -6.75 13.8125 C-7.4925 13.874375 -8.235 13.93625 -9 14 C-8.34 13.01 -7.68 12.02 -7 11 C-6.34 11 -5.68 11 -5 11 C-4.34 9.68 -3.68 8.36 -3 7 C-2.34 7 -1.68 7 -1 7 C-0.67 4.69 -0.34 2.38 0 0 Z " fill="#69B95C" transform="translate(220,233)"/>
<path d="M0 0 C1.95703125 0.828125 1.95703125 0.828125 4 2 C4.6875 4.75 4.6875 4.75 5 8 C5.185625 9.11375 5.37125 10.2275 5.5625 11.375 C5.706875 12.24125 5.85125 13.1075 6 14 C1.86217076 9.72424312 0.94055703 5.68046944 0 0 Z " fill="#82C264" transform="translate(176,222)"/>
<path d="M0 0 C1.32 0 2.64 0 4 0 C4 4.62 4 9.24 4 14 C2.68 13.67 1.36 13.34 0 13 C0.99 13 1.98 13 3 13 C2.67 10.03 2.34 7.06 2 4 C1.67 4.66 1.34 5.32 1 6 C0.34 5.67 -0.32 5.34 -1 5 C-0.67 3.35 -0.34 1.7 0 0 Z " fill="#B5CF74" transform="translate(204,349)"/>
<path d="M0 0 C0.66 0.33 1.32 0.66 2 1 C0.5140084 5.59306496 -1.85014682 8.43569245 -5 12 C-5.33 11.01 -5.66 10.02 -6 9 C-4.78515625 6.73828125 -4.78515625 6.73828125 -3.0625 4.3125 C-2.49660156 3.50425781 -1.93070313 2.69601563 -1.34765625 1.86328125 C-0.90292969 1.24839844 -0.45820313 0.63351563 0 0 Z " fill="#4BAC60" transform="translate(251,227)"/>
<path d="M0 0 C0.99 0 1.98 0 3 0 C2.39644592 3.85025879 1.23227397 6.86101159 -0.5625 10.3125 C-1.01753906 11.19550781 -1.47257812 12.07851562 -1.94140625 12.98828125 C-2.29074219 13.65214844 -2.64007813 14.31601563 -3 15 C-4.125 11.25 -4.125 11.25 -3 9 C-2.34 9 -1.68 9 -1 9 C-0.67 6.03 -0.34 3.06 0 0 Z " fill="#29A86E" transform="translate(319,229)"/>
<path d="M0 0 C1.98 0 3.96 0 6 0 C5.67 0.99 5.34 1.98 5 3 C5 2.34 5 1.68 5 1 C3.68 1 2.36 1 1 1 C1 2.32 1 3.64 1 5 C1.99 5 2.98 5 4 5 C4 6.32 4 7.64 4 9 C2.68 8.67 1.36 8.34 0 8 C0.33 7.34 0.66 6.68 1 6 C0.34 6 -0.32 6 -1 6 C-0.67 4.02 -0.34 2.04 0 0 Z " fill="#C1DA80" transform="translate(220,349)"/>
<path d="M0 0 C1.09651823 3.41139003 0.94215473 6.20655581 0.5625 9.75 C0.40974609 11.22726562 0.40974609 11.22726562 0.25390625 12.734375 C0.12822266 13.85585938 0.12822266 13.85585938 0 15 C-0.99 15.33 -1.98 15.66 -3 16 C-2.40984815 10.49191603 -1.43336231 5.35121931 0 0 Z " fill="#35AD77" transform="translate(145,306)"/>
<path d="M0 0 C0.82741699 0.01047363 1.65483398 0.02094727 2.50732422 0.03173828 C3.40322266 0.03818359 4.29912109 0.04462891 5.22216797 0.05126953 C6.62789063 0.07640625 6.62789063 0.07640625 8.06201172 0.10205078 C9.00689453 0.11107422 9.95177734 0.12009766 10.92529297 0.12939453 C13.26278464 0.15300556 15.59977295 0.18593562 17.93701172 0.22705078 C16.94701172 1.71205078 16.94701172 1.71205078 15.93701172 3.22705078 C15.27701172 3.22705078 14.61701172 3.22705078 13.93701172 3.22705078 C13.93701172 2.56705078 13.93701172 1.90705078 13.93701172 1.22705078 C12.82326172 1.39205078 11.70951172 1.55705078 10.56201172 1.72705078 C5.68190834 2.34799583 0.84839224 2.31762952 -4.06298828 2.22705078 C-2.06298828 0.22705078 -2.06298828 0.22705078 0 0 Z " fill="#1E9F65" transform="translate(282.06298828125,201.77294921875)"/>
<path d="M0 0 C3.7952131 1.49097658 5.61042731 3.75700849 8 7 C7 9 7 9 5 10 C4.16121545 8.71186658 3.32913217 7.41936744 2.5 6.125 C2.0359375 5.40570313 1.571875 4.68640625 1.09375 3.9453125 C0 2 0 2 0 0 Z " fill="#3AA677" transform="translate(306,156)"/>
<path d="M0 0 C1.98 0 3.96 0 6 0 C6 1.98 6 3.96 6 6 C4.02 6 2.04 6 0 6 C0.33 5.34 0.66 4.68 1 4 C1.66 4 2.32 4 3 4 C3 3.34 3 2.68 3 2 C2.01 1.67 1.02 1.34 0 1 C0 0.67 0 0.34 0 0 Z " fill="#14A361" transform="translate(237,310)"/>
<path d="M0 0 C0.556875 0.391875 1.11375 0.78375 1.6875 1.1875 C-5.0625 5.1875 -5.0625 5.1875 -7.3125 5.1875 C-7.3125 4.1975 -7.3125 3.2075 -7.3125 2.1875 C-3.20088417 -1.12463498 -3.20088417 -1.12463498 0 0 Z " fill="#47B05E" transform="translate(289.3125,267.8125)"/>
<path d="M0 0 C0.66 0 1.32 0 2 0 C2.94721072 2.60482949 3.30222393 4.30674701 2.17578125 6.890625 C1.17063275 8.62582873 0.0893855 10.31640423 -1 12 C-1.66 12 -2.32 12 -3 12 C-2.690625 11.505 -2.38125 11.01 -2.0625 10.5 C-0.58355618 7.02013219 -0.37597149 3.75971491 0 0 Z " fill="#C8F3DF" transform="translate(299,317)"/>
<path d="M0 0 C0.66 0 1.32 0 2 0 C2.33 2.64 2.66 5.28 3 8 C1.68 8 0.36 8 -1 8 C-0.67 5.36 -0.34 2.72 0 0 Z " fill="#C3F9E4" transform="translate(152,309)"/>
<path d="M0 0 C3.26008643 3.16952847 6.22237877 6.39937989 9 10 C8.67 10.66 8.34 11.32 8 12 C7.01 11.34 6.02 10.68 5 10 C5 9.34 5 8.68 5 8 C4.01 7.67 3.02 7.34 2 7 C0.8125 3.4375 0.8125 3.4375 0 0 Z " fill="#5CB770" transform="translate(205,191)"/>
<path d="M0 0 C0 1.65 0 3.3 0 5 C-2.64 5 -5.28 5 -8 5 C-7 2 -7 2 -5.125 0.8125 C-3 0 -3 0 0 0 Z " fill="#2FB04D" transform="translate(292,263)"/>
<path d="M0 0 C2.64 0.33 5.28 0.66 8 1 C8 1.66 8 2.32 8 3 C5.69 3.66 3.38 4.32 1 5 C0.67 3.35 0.34 1.7 0 0 Z " fill="#73C04B" transform="translate(212,265)"/>
<path d="M0 0 C1.921875 0.7109375 1.921875 0.7109375 4 2 C4.828125 4.1640625 4.828125 4.1640625 5.25 6.625 C5.39953125 7.44226563 5.5490625 8.25953125 5.703125 9.1015625 C5.80109375 9.72804687 5.8990625 10.35453125 6 11 C2.90407165 7.4912812 1.25805377 4.50802601 0 0 Z " fill="#84C05E" transform="translate(182,236)"/>
<path d="M0 0 C2.4375 1.125 2.4375 1.125 5 3 C5.8125 6.1875 5.8125 6.1875 6 9 C5.67 8.34 5.34 7.68 5 7 C2.97536745 6.34786708 2.97536745 6.34786708 1 6 C0.67 4.02 0.34 2.04 0 0 Z " fill="#46B15B" transform="translate(211,201)"/>
<path d="M0 0 C0.33 0 0.66 0 1 0 C0.67 3.96 0.34 7.92 0 12 C-0.99 12 -1.98 12 -3 12 C-2.40075776 7.80530429 -1.42500059 3.99000166 0 0 Z " fill="#3DB05D" transform="translate(255,225)"/>
<path d="M0 0 C2 3.75 2 3.75 2 6 C1.34 6 0.68 6 0 6 C0 8.64 0 11.28 0 14 C-0.33 14 -0.66 14 -1 14 C-1.22331199 12.41870971 -1.42804644 10.83478911 -1.625 9.25 C-1.74101562 8.36828125 -1.85703125 7.4865625 -1.9765625 6.578125 C-2.00207817 3.77140122 -1.44843844 2.36615134 0 0 Z " fill="#37AE78" transform="translate(320,176)"/>
<path d="M0 0 C5.15464734 0.48324819 8.81550319 3.18610761 13 6 C12.34 6.66 11.68 7.32 11 8 C9.16399255 6.85845641 7.33125195 5.71165684 5.5 4.5625 C4.4790625 3.92441406 3.458125 3.28632813 2.40625 2.62890625 C1.6121875 2.09136719 0.818125 1.55382812 0 1 C0 0.67 0 0.34 0 0 Z " fill="#86B6A2" transform="translate(280,136)"/>
<path d="M0 0 C2.31 0.33 4.62 0.66 7 1 C7.33 1.99 7.66 2.98 8 4 C8.66 4 9.32 4 10 4 C10 4.66 10 5.32 10 6 C5.56909529 4.79157144 3.01887244 3.48331435 0 0 Z " fill="#CAE4D9" transform="translate(272,133)"/>
<path d="M0 0 C0.66 0 1.32 0 2 0 C2 2.64 2 5.28 2 8 C0.68 8 -0.64 8 -2 8 C-1.125 1.125 -1.125 1.125 0 0 Z " fill="#B7CC70" transform="translate(219,355)"/>
<path d="M0 0 C1.32 0.33 2.64 0.66 4 1 C4 2.98 4 4.96 4 7 C2.68 7 1.36 7 0 7 C0 4.69 0 2.38 0 0 Z " fill="#C1EFD8" transform="translate(376,316)"/>
<path d="M0 0 C1 2 1 2 0.4765625 3.98828125 C0.19554687 4.75527344 -0.08546875 5.52226562 -0.375 6.3125 C-1.51177605 9.53077009 -2.45472843 12.61931629 -3 16 C-3.33 16 -3.66 16 -4 16 C-3.91256669 14.08249714 -3.8043811 12.16593335 -3.6875 10.25 C-3.62949219 9.18265625 -3.57148438 8.1153125 -3.51171875 7.015625 C-2.96909846 3.8178932 -2.14928855 2.37401309 0 0 Z " fill="#D8F5DA" transform="translate(178,181)"/>
<path d="M0 0 C0.66 0 1.32 0 2 0 C3.10228696 4.40914783 3.07654536 8.48382401 3 13 C2.67 13 2.34 13 2 13 C0.54815522 8.46298506 -0.23509196 4.81938524 0 0 Z " fill="#E9F6CD" transform="translate(226,350)"/>
<path d="M0 0 C0.33 1.32 0.66 2.64 1 4 C0.34 4 -0.32 4 -1 4 C-1.12375 4.94875 -1.2475 5.8975 -1.375 6.875 C-2 10 -2 10 -4 12 C-5 9 -5 9 -4.00390625 6.73828125 C-3.52824219 5.93777344 -3.05257812 5.13726562 -2.5625 4.3125 C-2.08941406 3.50425781 -1.61632812 2.69601563 -1.12890625 1.86328125 C-0.75636719 1.24839844 -0.38382813 0.63351563 0 0 Z " fill="#69BA74" transform="translate(251,235)"/>
<path d="M0 0 C0.66 0.33 1.32 0.66 2 1 C1.360625 1.103125 0.72125 1.20625 0.0625 1.3125 C-0.618125 1.539375 -1.29875 1.76625 -2 2 C-2.33 2.99 -2.66 3.98 -3 5 C-4.84765625 5.73046875 -4.84765625 5.73046875 -7.0625 6.1875 C-7.79597656 6.34605469 -8.52945313 6.50460938 -9.28515625 6.66796875 C-10.13400391 6.83232422 -10.13400391 6.83232422 -11 7 C-8.84658594 4.65082102 -6.78332063 3.17556996 -3.9375 1.75 C-3.24527344 1.39421875 -2.55304688 1.0384375 -1.83984375 0.671875 C-1.23269531 0.45015625 -0.62554687 0.2284375 0 0 Z " fill="#4DB579" transform="translate(262,204)"/>
<path d="M0 0 C1.9375 0.375 1.9375 0.375 4 1 C4.33 1.66 4.66 2.32 5 3 C3.41705218 3.05437607 1.83355744 3.09296271 0.25 3.125 C-0.63171875 3.14820313 -1.5134375 3.17140625 -2.421875 3.1953125 C-5 3 -5 3 -9 1 C-6.03 1 -3.06 1 0 1 C0 0.67 0 0.34 0 0 Z " fill="#84C56A" transform="translate(237,276)"/>
<path d="M0 0 C5.28798182 0.41474367 8.11690718 1.35224614 12 5 C6.71201818 4.58525633 3.88309282 3.64775386 0 0 Z " fill="#DCF4CD" transform="translate(216,263)"/>
<path d="M0 0 C2.475 0.99 2.475 0.99 5 2 C5 2.66 5 3.32 5 4 C6.98 4.66 8.96 5.32 11 6 C10.34 6.66 9.68 7.32 9 8 C6.96166576 6.7260411 4.96147874 5.38938077 3 4 C3 3.34 3 2.68 3 2 C2.01 1.67 1.02 1.34 0 1 C0 0.67 0 0.34 0 0 Z " fill="#95C670" transform="translate(197,258)"/>
<path d="M0 0 C1.32 0 2.64 0 4 0 C4 0.66 4 1.32 4 2 C5.98 1.67 7.96 1.34 10 1 C9.01 2.485 9.01 2.485 8 4 C4.31245243 3.50168276 2.39509338 2.89932357 0 0 Z " fill="#7ABC64" transform="translate(204,246)"/>
<path d="M0 0 C2.12508244 3.18762365 2.5020163 5.26512223 3 9 C2.34 9 1.68 9 1 9 C-2 4.61538462 -2 4.61538462 -2 2 C-1.34 2 -0.68 2 0 2 C0 1.34 0 0.68 0 0 Z " fill="#75C145" transform="translate(188,236)"/>
<path d="M0 0 C0 3 0 3 -1.5 4.6875 C-1.995 5.120625 -2.49 5.55375 -3 6 C-3 5.34 -3 4.68 -3 4 C-3.66 4 -4.32 4 -5 4 C-5.33 4.99 -5.66 5.98 -6 7 C-6.66 6.67 -7.32 6.34 -8 6 C-5.79072873 2.51167694 -3.91402949 1.26941497 0 0 Z " fill="#3EB260" transform="translate(246,216)"/>
<path d="M0 0 C2.046875 3.71875 2.046875 3.71875 1.625 6.25 C1.41875 6.8275 1.2125 7.405 1 8 C0.34 8 -0.32 8 -1 8 C-1.33 8.99 -1.66 9.98 -2 11 C-3 9 -3 9 -2.44140625 6.8359375 C-2.15136719 6.02382812 -1.86132812 5.21171875 -1.5625 4.375 C-1.27503906 3.55773437 -0.98757812 2.74046875 -0.69140625 1.8984375 C-0.46324219 1.27195313 -0.23507813 0.64546875 0 0 Z " fill="#7AC16F" transform="translate(227,242)"/>
<path d="M0 0 C0.33 0.66 0.66 1.32 1 2 C0.22265625 3.9453125 0.22265625 3.9453125 -0.9375 6.125 C-1.31777344 6.84945312 -1.69804687 7.57390625 -2.08984375 8.3203125 C-2.39019531 8.87460938 -2.69054687 9.42890625 -3 10 C-3.99 9.34 -4.98 8.68 -6 8 C-4.02 5.36 -2.04 2.72 0 0 Z " fill="#A9F1BE" transform="translate(254,227)"/>
<path d="M0 0 C1.32 0.33 2.64 0.66 4 1 C3.67 2.98 3.34 4.96 3 7 C2.34 7 1.68 7 1 7 C0.67 4.69 0.34 2.38 0 0 Z " fill="#1CA264" transform="translate(316,173)"/>
<path d="M0 0 C3.95820859 0.56545837 6.6659053 1.80902348 10 4 C9.67 4.99 9.34 5.98 9 7 C7.4972763 6.02501855 5.99788037 5.04490611 4.5 4.0625 C3.6646875 3.51722656 2.829375 2.97195312 1.96875 2.41015625 C1.3190625 1.94480469 0.669375 1.47945312 0 1 C0 0.67 0 0.34 0 0 Z " fill="#DEFBF2" transform="translate(285,137)"/>
<path d="M0 0 C1.5625 1.25 1.5625 1.25 3 3 C2.6875 5.1875 2.6875 5.1875 2 7 C1.34 6.67 0.68 6.34 0 6 C0 4.02 0 2.04 0 0 Z M-1 6 C-0.67 6.66 -0.34 7.32 0 8 C-0.99 9.485 -0.99 9.485 -2 11 C-1.67 9.35 -1.34 7.7 -1 6 Z " fill="#02AE5A" transform="translate(145,315)"/>
<path d="M0 0 C2.97 0 5.94 0 9 0 C8.34 2.31 7.68 4.62 7 7 C6.67 7 6.34 7 6 7 C6 5.02 6 3.04 6 1 C4.02 1 2.04 1 0 1 C0 0.67 0 0.34 0 0 Z " fill="#3A9D70" transform="translate(412,297)"/>
<path d="M0 0 C-3.625 3 -3.625 3 -7 3 C-7.33 2.01 -7.66 1.02 -8 0 C-5.13822943 -1.43088528 -3.06624227 -0.59991697 0 0 Z " fill="#58B85F" transform="translate(280,274)"/>
<path d="M0 0 C0.33 0.66 0.66 1.32 1 2 C3.52733235 2.65555119 3.52733235 2.65555119 6 3 C5.67 3.99 5.34 4.98 5 6 C2.97954558 5.39816251 0.97888961 4.72693904 -1 4 C-1.33 3.34 -1.66 2.68 -2 2 C-1.34 2 -0.68 2 0 2 C0 1.34 0 0.68 0 0 Z " fill="#93CB6E" transform="translate(215,268)"/>
<path d="M0 0 C0.66 0 1.32 0 2 0 C0.84414715 3.91211733 -0.35534962 6.8745041 -3 10 C-2.49287967 6.28111761 -1.88391785 3.26545761 0 0 Z " fill="#C2F1DE" transform="translate(314,226)"/>
<path d="M0 0 C0.66 0.66 1.32 1.32 2 2 C1.625 4.125 1.625 4.125 1 6 C0.01 6 -0.98 6 -2 6 C-2 3 -2 3 0 0 Z " fill="#51B766" transform="translate(237,223)"/>
<path d="M0 0 C0.99 0 1.98 0 3 0 C5.25 2.8125 5.25 2.8125 7 6 C6.67 6.99 6.34 7.98 6 9 C4.02 6.03 2.04 3.06 0 0 Z " fill="#DFFBE6" transform="translate(209,195)"/>
<path d="M0 0 C0.33 0.66 0.66 1.32 1 2 C0.06421005 4.35981813 -0.93347808 6.69631264 -2 9 C-2.66 9 -3.32 9 -4 9 C-3.38461538 3.46153846 -3.38461538 3.46153846 -1.4375 1.125 C-0.963125 0.75375 -0.48875 0.3825 0 0 Z " fill="#5BA97E" transform="translate(200,148)"/>
<path d="M0 0 C1.670625 0.061875 1.670625 0.061875 3.375 0.125 C3.375 0.455 3.375 0.785 3.375 1.125 C1.395 1.125 -0.585 1.125 -2.625 1.125 C-2.955 3.435 -3.285 5.745 -3.625 8.125 C-3.955 8.125 -4.285 8.125 -4.625 8.125 C-5.25 5.25 -5.25 5.25 -5.625 2.125 C-3.625 0.125 -3.625 0.125 0 0 Z " fill="#F8FEDF" transform="translate(222.625,347.875)"/>
<path d="M0 0 C2.31 0.33 4.62 0.66 7 1 C7 1.66 7 2.32 7 3 C4.36 3 1.72 3 -1 3 C-0.67 2.01 -0.34 1.02 0 0 Z " fill="#C2F0DD" transform="translate(292,314)"/>
<path d="M0 0 C0.99 0 1.98 0 3 0 C2.6875 1.875 2.6875 1.875 2 4 C1.01 4.66 0.02 5.32 -1 6 C-1.042721 4.33388095 -1.04063832 2.66617115 -1 1 C-0.67 0.67 -0.34 0.34 0 0 Z " fill="#37AE65" transform="translate(301,256)"/>
<path d="M0 0 C0.66 0.33 1.32 0.66 2 1 C0.68 3.64 -0.64 6.28 -2 9 C-3 5 -3 5 -1.5625 2.25 C-1.046875 1.5075 -0.53125 0.765 0 0 Z " fill="#DCF8DD" transform="translate(232,228)"/>
<path d="M0 0 C0.33 0.99 0.66 1.98 1 3 C1.66 3.33 2.32 3.66 3 4 C-0.75 5.125 -0.75 5.125 -3 4 C-2.67 3.01 -2.34 2.02 -2 1 C-1.34 0.67 -0.68 0.34 0 0 Z " fill="#3EB35E" transform="translate(189,164)"/>
</svg>
